*
*
G04 PADS 9.5 Build Number: 522968 generated Gerber (RS-274-X) file*
G04 PC Version=2.1*
*
%IN "mcu_test.pcb"*%
*
%MOIN*%
*
%FSLAX35Y35*%
*
*
*
*
G04 PC Standard Apertures*
*
*
G04 Thermal Relief Aperture macro.*
%AMTER*
1,1,$1,0,0*
1,0,$1-$2,0,0*
21,0,$3,$4,0,0,45*
21,0,$3,$4,0,0,135*
%
*
*
G04 Annular Aperture macro.*
%AMANN*
1,1,$1,0,0*
1,0,$2,0,0*
%
*
*
G04 Odd Aperture macro.*
%AMODD*
1,1,$1,0,0*
1,0,$1-0.005,0,0*
%
*
*
G04 PC Custom Aperture Macros*
*
*
*
*
*
*
G04 PC Aperture Table*
*
%ADD010C,0.001*%
%ADD011C,0.00787*%
%ADD023R,0.01181X0.05197*%
%ADD024R,0.05197X0.01181*%
%ADD026R,0.0315X0.0315*%
%ADD027C,0.05906*%
%ADD028R,0.08465X0.0374*%
%ADD029R,0.08661X0.12992*%
%ADD030R,0.05512X0.04724*%
%ADD031C,0.02362*%
%ADD032C,0.11811*%
%ADD033C,0.006*%
%ADD034C,0.0315*%
%ADD035C,0.01181*%
%ADD036C,0.02953*%
%ADD037C,0.02559*%
%ADD038C,0.04331*%
%ADD039C,0.01*%
%ADD043R,0.02756X0.01969*%
%ADD044R,0.01969X0.02756*%
*
*
*
*
G04 PC Circuitry*
G04 Layer Name mcu_test.pcb - circuitry*
%LPD*%
*
*
G04 PC Custom Flashes*
G04 Layer Name mcu_test.pcb - flashes*
%LPD*%
*
*
G04 PC Circuitry*
G04 Layer Name mcu_test.pcb - circuitry*
%LPD*%
*
G54D10*
G54D11*
G01X314961Y328701D02*
X328110D01*
X336614Y337205*
X427362Y327953D02*
X433088D01*
X433867Y327174*
X421063Y339764D02*
Y344488D01*
X451772Y336024D02*
X459094Y328701D01*
X472441*
X338189Y348819D02*
Y353543D01*
X348425Y349016D02*
X360246Y360837D01*
X369094Y343701D02*
Y351929D01*
X380906Y343701D02*
X385433D01*
X386226Y344494*
X386614*
Y344882*
X388780Y347047*
Y351929*
X375394Y343701D02*
X380906D01*
X386614Y344488D02*
Y344882D01*
X388780Y347047*
Y351929*
X390748D02*
Y347047D01*
X392913Y344882*
Y344488*
X410236D02*
Y346457D01*
X411220Y347441*
X414961*
X416339Y348819*
Y351929*
X416535Y344488D02*
X417913D01*
X418307Y344882*
X418701Y344488*
X421063*
X420276Y351929D02*
X422244D01*
X418307D02*
Y344882D01*
X418701Y344488*
X421063*
Y339764*
X422244Y351929D02*
Y348622D01*
X423622Y347244*
X426575*
X427362Y346457*
Y344488*
X330512Y356693D02*
Y354724D01*
X336417Y348819*
X338189*
X333268Y356693D02*
Y361024D01*
X337992*
X338189Y360827*
X351929Y361220D02*
X344291D01*
X344488Y361024*
Y360827*
Y353543D02*
X346220D01*
X351929Y359252*
X435472Y361220D02*
X440748D01*
X442913Y359055*
X443110Y359252*
X447638*
X330512Y365354D02*
Y361024D01*
X323031Y367913D02*
X323228D01*
X325787Y365354*
X330512*
X327559Y369094D02*
X333268D01*
Y369685*
X336024D02*
X339961Y365748D01*
X333268Y365354D02*
Y365748D01*
X339961*
X342520*
Y372047D02*
Y371063D01*
X351929*
Y367126D02*
X355906D01*
X360246Y362785*
Y360837*
X426762Y362982D02*
Y361034D01*
X442913Y344882*
X426762Y362982D02*
X430906Y367126D01*
X435472*
Y371063D02*
X450197D01*
X451575Y369685*
X455906*
X435472Y363189D02*
X439567D01*
X441732Y365354*
X442913*
X327559Y373031D02*
X332874D01*
X334843Y375000*
X351929*
X327559Y376969D02*
X351929D01*
X327559Y380906D02*
X351929D01*
X435472Y378937D02*
X449213D01*
X456102Y385827*
X458071*
X435472Y375000D02*
X458071D01*
X338386Y391339D02*
X344094D01*
X344193Y384941D02*
X344291Y384843D01*
X351929*
X344094Y391339D02*
X344291D01*
X348819Y386811*
X351929*
X435472Y388780D02*
X440551D01*
X442717Y390945*
X442913*
X435472Y386811D02*
X440748D01*
X442913Y384646*
X443110Y384843*
X447638*
X300000Y402756D02*
Y409646D01*
X301969Y411614*
X303937*
X300000Y402756D02*
X301969Y400787D01*
X303937*
X297638Y397835D02*
X301969Y393504D01*
X303937*
X297638Y397835D02*
Y417126D01*
X301969Y421457*
X303937*
Y393504D02*
X308071D01*
X313189Y398622*
X314882*
X314961Y398701*
X303937Y400787D02*
Y396260D01*
X344488Y402362D02*
X346654D01*
X348819Y404528*
X351929*
X303937Y407087D02*
X314961D01*
Y408701*
X327953Y410827D02*
X345276Y428150D01*
X351929*
X339764Y408661D02*
X344488D01*
X346654*
X348819Y406496*
X351929*
X435472Y412402D02*
X438976D01*
X440551Y413976*
X445472*
X446457Y414961*
X455709*
X435472Y408465D02*
X440354D01*
X442520Y410630*
X442913*
X435472Y406496D02*
X440945D01*
X442913Y404528*
Y404331*
X303937Y414370D02*
X309843D01*
X314173Y418701*
X314961*
X435472Y420276D02*
X441929D01*
X443701Y422047*
X450394*
X458268Y429921*
X435472Y416339D02*
X440354D01*
X441535Y417520*
X452559*
X457874Y422835*
X303937Y428740D02*
X314921D01*
X314961Y428701*
X337205Y431102D02*
X363780D01*
X365157Y432480*
Y435472*
X358661Y428150D02*
X365945Y420866D01*
Y371063*
X371063Y365945*
X402559*
X406496Y362008*
X429528Y425197D02*
Y428740D01*
X437992Y437205*
X429528Y425197D02*
X430512Y424213D01*
X435472*
Y428150D02*
X441378Y434055D01*
X442913*
X435472Y426181D02*
X442913D01*
X449213Y434055D02*
Y430118D01*
Y426181*
X300000Y433071D02*
Y426181D01*
X301969Y424213*
X303937*
X300000Y433071D02*
X301969Y435039D01*
X303937*
Y442323D02*
Y463189D01*
X309449Y468701*
X314961*
X303937Y439567D02*
Y435039D01*
X361220Y435472D02*
Y442913D01*
X362598Y444291*
X363189Y435472D02*
Y438976D01*
X365551Y441339*
X368110*
X368898Y442126*
Y444291*
X386811Y435472D02*
Y439567D01*
X388976Y441732*
Y442913*
X408465Y435472D02*
Y439567D01*
X410630Y441732*
Y442913*
X357480Y444291D02*
X362598D01*
X351181D02*
Y441142D01*
X356890Y435433*
X359213*
X359252Y435472*
X388976Y442913D02*
X393307D01*
X382677D02*
Y441535D01*
X384843Y439370*
Y435472*
X410630Y442913D02*
X414961D01*
X404331D02*
Y441535D01*
X406496Y439370*
Y435472*
X450787Y450000D02*
X469488Y468701D01*
X472441*
G54D23*
X359252Y351929D03*
X361220D03*
X363189D03*
X365157D03*
X367126D03*
X369094D03*
X371063D03*
X373031D03*
X375000D03*
X376969D03*
X378937D03*
X380906D03*
X382874D03*
X384843D03*
X386811D03*
X388780D03*
X390748D03*
X392717D03*
X394685D03*
X396654D03*
X398622D03*
X400591D03*
X402559D03*
X404528D03*
X406496D03*
X408465D03*
X410433D03*
X412402D03*
X414370D03*
X416339D03*
X418307D03*
X420276D03*
X422244D03*
X424213D03*
X426181D03*
X428150D03*
Y435472D03*
X426181D03*
X424213D03*
X422244D03*
X420276D03*
X418307D03*
X416339D03*
X414370D03*
X412402D03*
X410433D03*
X408465D03*
X406496D03*
X404528D03*
X402559D03*
X400591D03*
X398622D03*
X396654D03*
X394685D03*
X392717D03*
X390748D03*
X388780D03*
X386811D03*
X384843D03*
X382874D03*
X380906D03*
X378937D03*
X376969D03*
X375000D03*
X373031D03*
X371063D03*
X369094D03*
X367126D03*
X365157D03*
X363189D03*
X361220D03*
X359252D03*
G54D24*
X435472Y359252D03*
Y361220D03*
Y363189D03*
Y365157D03*
Y367126D03*
Y369094D03*
Y371063D03*
Y373031D03*
Y375000D03*
Y376969D03*
Y378937D03*
Y380906D03*
Y382874D03*
Y384843D03*
Y386811D03*
Y388780D03*
Y390748D03*
Y392717D03*
Y394685D03*
Y396654D03*
Y398622D03*
Y400591D03*
Y402559D03*
Y404528D03*
Y406496D03*
Y408465D03*
Y410433D03*
Y412402D03*
Y414370D03*
Y416339D03*
Y418307D03*
Y420276D03*
Y422244D03*
Y424213D03*
Y426181D03*
Y428150D03*
X351929D03*
Y426181D03*
Y424213D03*
Y422244D03*
Y420276D03*
Y418307D03*
Y416339D03*
Y414370D03*
Y412402D03*
Y410433D03*
Y408465D03*
Y406496D03*
Y404528D03*
Y402559D03*
Y400591D03*
Y398622D03*
Y396654D03*
Y394685D03*
Y392717D03*
Y390748D03*
Y388780D03*
Y386811D03*
Y384843D03*
Y382874D03*
Y380906D03*
Y378937D03*
Y376969D03*
Y375000D03*
Y373031D03*
Y371063D03*
Y369094D03*
Y367126D03*
Y365157D03*
Y363189D03*
Y361220D03*
Y359252D03*
G54D26*
X427362Y344488D03*
X421063D03*
X442913Y426181D03*
X449213D03*
X362598Y444291D03*
X368898D03*
X342520Y365748D03*
Y372047D03*
X338189Y360827D03*
X344488D03*
X326772Y458661D03*
Y452362D03*
X367717Y462992D03*
Y456693D03*
X323622Y439764D03*
X329921D03*
X344488Y402362D03*
Y408661D03*
X344094Y385039D03*
Y391339D03*
X369094Y343701D03*
X375394D03*
X392913Y344488D03*
X386614D03*
X410236D03*
X416535D03*
X442913Y365354D03*
Y359055D03*
Y390945D03*
Y384646D03*
Y410630D03*
Y404331D03*
Y434055D03*
X449213D03*
X404331Y442913D03*
X410630D03*
X382677D03*
X388976D03*
X351181Y444291D03*
X357480D03*
X344488Y353543D03*
X338189D03*
X395472Y323228D03*
X401772D03*
X303937Y400787D03*
Y407087D03*
Y428740D03*
Y435039D03*
X427362Y327953D03*
Y334252D03*
G54D27*
X314961Y388701D03*
Y378701D03*
Y368701D03*
Y358701D03*
Y348701D03*
Y338701D03*
Y328701D03*
Y318701D03*
Y398701D03*
Y408701D03*
Y418701D03*
Y428701D03*
Y438701D03*
Y448701D03*
Y458701D03*
Y468701D03*
X472441D03*
Y458701D03*
Y448701D03*
Y438701D03*
Y428701D03*
Y418701D03*
Y408701D03*
Y398701D03*
Y388701D03*
Y378701D03*
Y368701D03*
Y358701D03*
Y348701D03*
Y338701D03*
Y328701D03*
Y318701D03*
G54D28*
X335827Y470079D03*
Y461024D03*
Y451969D03*
G54D29*
X355118Y461024D03*
G54D30*
X391339Y330315D03*
X400787D03*
Y337795D03*
X391339D03*
G54D31*
X410630Y331496D03*
G54D32*
X303150Y480315D03*
X484252D03*
X303150Y307087D03*
X484252D03*
G54D33*
X395472Y323228D02*
X396063D01*
Y336745*
X400787Y330315D02*
X401772D01*
Y323228*
X391339Y337795D02*
X395013D01*
X396063Y336745*
X400787Y337795D02*
X402559D01*
Y351929*
X406496D02*
Y362008D01*
X404528Y351929D02*
Y348425D01*
X406299Y346654*
Y339764*
X408661Y337402*
Y333465*
X410630Y331496*
X344094Y385039D02*
X344193Y384941D01*
X314961Y438701D02*
X316024Y439764D01*
X323622*
X326772Y446850D02*
Y443898D01*
X329921Y440748*
Y439764*
G54D34*
X433867Y327174D02*
X463386Y356693D01*
Y395669*
X339567Y343701D02*
X344488Y348622D01*
Y353543*
X339567Y343701D02*
X369094D01*
X347047D02*
X352165Y338583D01*
X389961*
X392913Y341535*
Y344488*
X369094Y343701D02*
X347047D01*
X352165Y338583*
X390551*
X391339Y337795*
X410236Y344488D02*
Y341142D01*
X413780Y337598*
X416732*
X419882Y334449*
Y330118*
X422835Y327165*
X433858*
X433867Y327174*
X427362Y344488D02*
Y334252D01*
X323031Y367913D02*
Y385039D01*
X344094*
X323031Y365551D02*
Y354134D01*
X333465Y343701*
X369094*
X323031Y388386D02*
Y365551D01*
Y367913*
X442913Y365354D02*
X458661D01*
X463386Y370079*
Y395669*
X323031Y402441D02*
Y388386D01*
Y365551*
X442913Y390945D02*
X458661D01*
X463386Y395669*
Y415354*
X314961Y398701D02*
X319291D01*
X323031Y402441*
Y388386D02*
Y402441D01*
Y408071*
X328740Y402362*
X344488*
X323031Y402441D02*
Y422638D01*
X344685Y444291*
X351181*
X323031Y402441D02*
Y388386D01*
X442913Y410630D02*
X458661D01*
X463386Y415354*
Y431102D02*
Y415354D01*
Y395669*
X326772Y452362D02*
X335433D01*
X335827Y451969*
X326772Y452362D02*
Y446850D01*
X351181Y444291D02*
Y448031D01*
X355118Y451969*
Y461024*
X367717Y450984D02*
Y456693D01*
X362598Y444291D02*
Y447638D01*
X365945Y450984*
X367717*
X382677Y442913D02*
Y456299D01*
X382776Y456398*
X314961Y458701D02*
X326732D01*
X326772Y458661*
Y467520*
X329331Y470079*
X335827*
X355118Y461024D02*
X357087Y462992D01*
X367717*
X367913Y463189*
X375984*
X387795Y451378*
X443110*
X463386Y431102*
Y415354*
X367717Y462992D02*
X367913Y463189D01*
X375984*
X387795Y451378*
X443110*
X463386Y431102*
X367717Y462992D02*
X367913Y463189D01*
X375984*
X387795Y451378*
X433268*
X442520Y442126*
Y434055*
X442913*
X367717Y462992D02*
X367913Y463189D01*
X375984*
X387795Y451378*
X396654*
X404331Y443701*
Y442913*
X367717Y462992D02*
X367913Y463189D01*
X375984*
X382776Y456398*
G54D35*
X442913Y404331D02*
X443110Y404528D01*
X447638*
G54D36*
X336614Y337205D03*
X421063Y339764D03*
X451772Y336024D03*
X348425Y349016D03*
X442913Y344882D03*
X447638Y359252D03*
X327559Y369094D03*
X455906Y369685D03*
X327559Y373031D03*
Y376969D03*
Y380906D03*
X458071Y375000D03*
X447638Y384843D03*
X458071Y385827D03*
X447638Y404528D03*
X455709Y414961D03*
X358661Y428150D03*
X449213Y430118D03*
X458268Y429921D03*
X457874Y422835D03*
X393307Y442913D03*
X414961D03*
G54D37*
X338189Y348819D03*
X380906Y343701D03*
X338386Y391339D03*
X327953Y410827D03*
X339764Y408661D03*
X337205Y431102D03*
X437992Y437205D03*
X450787Y450000D03*
G54D38*
X326772Y446850D03*
X367717Y450984D03*
G54D39*
X293307Y297244D02*
X494094D01*
Y490157*
X293307*
Y297244*
G54D43*
X303937Y393504D03*
Y396260D03*
Y414370D03*
Y411614D03*
Y424213D03*
Y421457D03*
Y439567D03*
Y442323D03*
G54D44*
X330512Y361024D03*
X333268D03*
X330512Y356693D03*
X333268D03*
X330512Y365354D03*
X333268D03*
Y369685D03*
X336024D03*
X0Y0D02*
M02*
