*
*
G04 PADS 9.5 Build Number: 522968 generated Gerber (RS-274-X) file*
G04 PC Version=2.1*
*
%IN "mcu_test.pcb"*%
*
%MOIN*%
*
%FSLAX35Y35*%
*
*
*
*
G04 PC Standard Apertures*
*
*
G04 Thermal Relief Aperture macro.*
%AMTER*
1,1,$1,0,0*
1,0,$1-$2,0,0*
21,0,$3,$4,0,0,45*
21,0,$3,$4,0,0,135*
%
*
*
G04 Annular Aperture macro.*
%AMANN*
1,1,$1,0,0*
1,0,$2,0,0*
%
*
*
G04 Odd Aperture macro.*
%AMODD*
1,1,$1,0,0*
1,0,$1-0.005,0,0*
%
*
*
G04 PC Custom Aperture Macros*
*
*
*
*
*
*
G04 PC Aperture Table*
*
%ADD010C,0.001*%
%ADD039C,0.01*%
*
*
*
*
G04 PC Circuitry*
G04 Layer Name mcu_test.pcb - circuitry*
%LPD*%
*
*
G04 PC Custom Flashes*
G04 Layer Name mcu_test.pcb - flashes*
%LPD*%
*
*
G04 PC Circuitry*
G04 Layer Name mcu_test.pcb - circuitry*
%LPD*%
*
G54D10*
G54D39*
G01X310961Y384701D02*
X318961Y392701D01*
X310961D02*
X318961Y384701D01*
X310961Y374701D02*
X318961Y382701D01*
X310961D02*
X318961Y374701D01*
X310961Y364701D02*
X318961Y372701D01*
X310961D02*
X318961Y364701D01*
X310961Y354701D02*
X318961Y362701D01*
X310961D02*
X318961Y354701D01*
X310961Y344701D02*
X318961Y352701D01*
X310961D02*
X318961Y344701D01*
X310961Y334701D02*
X318961Y342701D01*
X310961D02*
X318961Y334701D01*
X310961Y324701D02*
X318961Y332701D01*
X310961D02*
X318961Y324701D01*
X310961Y314701D02*
X318961Y322701D01*
X310961D02*
X318961Y314701D01*
X310961Y394701D02*
X318961Y402701D01*
X310961D02*
X318961Y394701D01*
X310961Y404701D02*
X318961Y412701D01*
X310961D02*
X318961Y404701D01*
X310961Y414701D02*
X318961Y422701D01*
X310961D02*
X318961Y414701D01*
X310961Y424701D02*
X318961Y432701D01*
X310961D02*
X318961Y424701D01*
X310961Y434701D02*
X318961Y442701D01*
X310961D02*
X318961Y434701D01*
X310961Y444701D02*
X318961Y452701D01*
X310961D02*
X318961Y444701D01*
X310961Y454701D02*
X318961Y462701D01*
X310961D02*
X318961Y454701D01*
X310961Y464701D02*
X318961Y472701D01*
X310961D02*
X318961Y464701D01*
X468441D02*
X476441Y472701D01*
X468441D02*
X476441Y464701D01*
X468441Y454701D02*
X476441Y462701D01*
X468441D02*
X476441Y454701D01*
X468441Y444701D02*
X476441Y452701D01*
X468441D02*
X476441Y444701D01*
X468441Y434701D02*
X476441Y442701D01*
X468441D02*
X476441Y434701D01*
X468441Y424701D02*
X476441Y432701D01*
X468441D02*
X476441Y424701D01*
X468441Y414701D02*
X476441Y422701D01*
X468441D02*
X476441Y414701D01*
X468441Y404701D02*
X476441Y412701D01*
X468441D02*
X476441Y404701D01*
X468441Y394701D02*
X476441Y402701D01*
X468441D02*
X476441Y394701D01*
X468441Y384701D02*
X476441Y392701D01*
X468441D02*
X476441Y384701D01*
X468441Y374701D02*
X476441Y382701D01*
X468441D02*
X476441Y374701D01*
X468441Y364701D02*
X476441Y372701D01*
X468441D02*
X476441Y364701D01*
X468441Y354701D02*
X476441Y362701D01*
X468441D02*
X476441Y354701D01*
X468441Y344701D02*
X476441Y352701D01*
X468441D02*
X476441Y344701D01*
X468441Y334701D02*
X476441Y342701D01*
X468441D02*
X476441Y334701D01*
X468441Y324701D02*
X476441Y332701D01*
X468441D02*
X476441Y324701D01*
X468441Y314701D02*
X476441Y322701D01*
X468441D02*
X476441Y314701D01*
X406630Y327496D02*
X414630D01*
Y335496*
X406630*
Y327496*
X410630Y331496D02*
Y335496D01*
X299150Y480315D02*
X307150D01*
X303150Y476315D02*
Y484315D01*
X480252Y480315D02*
X488252D01*
X484252Y476315D02*
Y484315D01*
X299150Y307087D02*
X307150D01*
X303150Y303087D02*
Y311087D01*
X480252Y307087D02*
X488252D01*
X484252Y303087D02*
Y311087D01*
X336614Y333205D02*
X340614Y337205D01*
X336614Y341205*
X332614Y337205*
X336614Y333205*
Y337205D02*
Y341205D01*
X421063Y335764D02*
X425063Y339764D01*
X421063Y343764*
X417063Y339764*
X421063Y335764*
Y339764D02*
Y343764D01*
X451772Y332024D02*
X455772Y336024D01*
X451772Y340024*
X447772Y336024*
X451772Y332024*
Y336024D02*
Y340024D01*
X334189Y344819D02*
X342189D01*
Y352819*
X334189*
Y344819*
X338189Y348819D02*
Y352819D01*
X348425Y345016D02*
X352425Y349016D01*
X348425Y353016*
X344425Y349016*
X348425Y345016*
Y349016D02*
Y353016D01*
X376906Y339701D02*
X384906D01*
Y347701*
X376906*
Y339701*
X380906Y343701D02*
Y347701D01*
X442913Y340882D02*
X446913Y344882D01*
X442913Y348882*
X438913Y344882*
X442913Y340882*
Y344882D02*
Y348882D01*
X447638Y355252D02*
X451638Y359252D01*
X447638Y363252*
X443638Y359252*
X447638Y355252*
Y359252D02*
Y363252D01*
X327559Y365094D02*
X331559Y369094D01*
X327559Y373094*
X323559Y369094*
X327559Y365094*
Y369094D02*
Y373094D01*
X455906Y365685D02*
X459906Y369685D01*
X455906Y373685*
X451906Y369685*
X455906Y365685*
Y369685D02*
Y373685D01*
X327559Y369031D02*
X331559Y373031D01*
X327559Y377031*
X323559Y373031*
X327559Y369031*
Y373031D02*
Y377031D01*
Y372969D02*
X331559Y376969D01*
X327559Y380969*
X323559Y376969*
X327559Y372969*
Y376969D02*
Y380969D01*
Y376906D02*
X331559Y380906D01*
X327559Y384906*
X323559Y380906*
X327559Y376906*
Y380906D02*
Y384906D01*
X458071Y371000D02*
X462071Y375000D01*
X458071Y379000*
X454071Y375000*
X458071Y371000*
Y375000D02*
Y379000D01*
X334386Y387339D02*
X342386D01*
Y395339*
X334386*
Y387339*
X338386Y391339D02*
Y395339D01*
X447638Y380843D02*
X451638Y384843D01*
X447638Y388843*
X443638Y384843*
X447638Y380843*
Y384843D02*
Y388843D01*
X458071Y381827D02*
X462071Y385827D01*
X458071Y389827*
X454071Y385827*
X458071Y381827*
Y385827D02*
Y389827D01*
X323953Y406827D02*
X331953D01*
Y414827*
X323953*
Y406827*
X327953Y410827D02*
Y414827D01*
X335764Y404661D02*
X343764D01*
Y412661*
X335764*
Y404661*
X339764Y408661D02*
Y412661D01*
X447638Y400528D02*
X451638Y404528D01*
X447638Y408528*
X443638Y404528*
X447638Y400528*
Y404528D02*
Y408528D01*
X455709Y410961D02*
X459709Y414961D01*
X455709Y418961*
X451709Y414961*
X455709Y410961*
Y414961D02*
Y418961D01*
X333205Y427102D02*
X341205D01*
Y435102*
X333205*
Y427102*
X337205Y431102D02*
Y435102D01*
X358661Y424150D02*
X362661Y428150D01*
X358661Y432150*
X354661Y428150*
X358661Y424150*
Y428150D02*
Y432150D01*
X449213Y426118D02*
X453213Y430118D01*
X449213Y434118*
X445213Y430118*
X449213Y426118*
Y430118D02*
Y434118D01*
X458268Y425921D02*
X462268Y429921D01*
X458268Y433921*
X454268Y429921*
X458268Y425921*
Y429921D02*
Y433921D01*
X457874Y418835D02*
X461874Y422835D01*
X457874Y426835*
X453874Y422835*
X457874Y418835*
Y422835D02*
Y426835D01*
X433992Y433205D02*
X441992D01*
Y441205*
X433992*
Y433205*
X437992Y437205D02*
Y441205D01*
X322772Y442850D02*
X330772D01*
X322772Y450850*
X330772*
X322772Y442850*
X363717Y446984D02*
X371717D01*
X363717Y454984*
X371717*
X363717Y446984*
X393307Y438913D02*
X397307Y442913D01*
X393307Y446913*
X389307Y442913*
X393307Y438913*
Y442913D02*
Y446913D01*
X414961Y438913D02*
X418961Y442913D01*
X414961Y446913*
X410961Y442913*
X414961Y438913*
Y442913D02*
Y446913D01*
X446787Y446000D02*
X454787D01*
Y454000*
X446787*
Y446000*
X450787Y450000D02*
Y454000D01*
X293307Y297244D02*
X494094D01*
Y490157*
X293307*
Y297244*
X39370Y183370D02*
X357370D01*
X39370Y159370D02*
X357370D01*
X39370Y135370D02*
X357370D01*
X39370Y111370D02*
X357370D01*
X39370Y87370D02*
X357370D01*
X39370Y63370D02*
X357370D01*
X39370Y39370D02*
X357370D01*
X39370Y183370D02*
Y39370D01*
X123370Y183370D02*
Y39370D01*
X159370Y183370D02*
Y39370D01*
X195370Y183370D02*
Y39370D01*
X249370Y183370D02*
Y39370D01*
X309370Y183370D02*
Y39370D01*
X357370Y183370D02*
Y39370D01*
X74870Y172120D02*
X74325Y172870D01*
X73506Y173245*
X72416*
X71597Y172870*
X71052Y172120*
Y171370*
X71325Y170620*
X71597Y170245*
X72143Y169870*
X73779Y169120*
X74325Y168745*
X74597Y168370*
X74870Y167620*
Y166495*
X74325Y165745*
X73506Y165370*
X72416*
X71597Y165745*
X71052Y166495*
X77325Y173245D02*
Y165370D01*
X83597Y173245D02*
X79779Y165370D01*
Y173245D02*
X83597D01*
X79779Y165370D02*
X83597D01*
X86052Y173245D02*
Y165370D01*
Y173245D02*
X89597D01*
X86052Y169495D02*
X88234D01*
X86052Y165370D02*
X89597D01*
X133234Y173245D02*
X132688Y172870D01*
X132143Y172120*
X131870Y171370*
X131597Y170245*
Y168370*
X131870Y167245*
X132143Y166495*
X132688Y165745*
X133234Y165370*
X134325*
X134870Y165745*
X135416Y166495*
X135688Y167245*
X135961Y168370*
Y170245*
X135688Y171370*
X135416Y172120*
X134870Y172870*
X134325Y173245*
X133234*
X134052Y166870D02*
X135688Y164620D01*
X140325Y173245D02*
Y165370D01*
X138416Y173245D02*
X142234D01*
X144688D02*
X146870Y169495D01*
Y165370*
X149052Y173245D02*
X146870Y169495D01*
X171416Y172120D02*
X170870Y172870D01*
X170052Y173245*
X168961*
X168143Y172870*
X167597Y172120*
Y171370*
X167870Y170620*
X168143Y170245*
X168688Y169870*
X170325Y169120*
X170870Y168745*
X171143Y168370*
X171416Y167620*
Y166495*
X170870Y165745*
X170052Y165370*
X168961*
X168143Y165745*
X167597Y166495*
X173870Y173245D02*
X176052Y169495D01*
Y165370*
X178234Y173245D02*
X176052Y169495D01*
X180688Y173245D02*
Y165370D01*
Y173245D02*
X182870Y165370D01*
X185052Y173245D02*
X182870Y165370D01*
X185052Y173245D02*
Y165370D01*
X206870Y173245D02*
Y165370D01*
Y173245D02*
X209325D01*
X210143Y172870*
X210416Y172495*
X210688Y171745*
Y170620*
X210416Y169870*
X210143Y169495*
X209325Y169120*
X206870*
X213143Y173245D02*
Y165370D01*
X216416*
X221052Y173245D02*
X218870Y165370D01*
X221052Y173245D02*
X223234Y165370D01*
X219688Y167995D02*
X222416D01*
X227597Y173245D02*
Y165370D01*
X225688Y173245D02*
X229506D01*
X231961D02*
Y165370D01*
Y173245D02*
X235506D01*
X231961Y169495D02*
X234143D01*
X231961Y165370D02*
X235506D01*
X237961Y173245D02*
Y165370D01*
Y173245D02*
X239870D01*
X240688Y172870*
X241234Y172120*
X241506Y171370*
X241779Y170245*
Y168370*
X241506Y167245*
X241234Y166495*
X240688Y165745*
X239870Y165370*
X237961*
X256097Y173245D02*
Y165370D01*
X254188Y173245D02*
X258006D01*
X260461D02*
Y165370D01*
X264279Y173245D02*
Y165370D01*
X260461Y169495D02*
X264279D01*
X266734Y173245D02*
Y165370D01*
Y173245D02*
X269188D01*
X270006Y172870*
X270279Y172495*
X270552Y171745*
Y170995*
X270279Y170245*
X270006Y169870*
X269188Y169495*
X266734*
X268643D02*
X270552Y165370D01*
X277916Y174745D02*
X273006Y162745D01*
X280370Y173245D02*
Y165370D01*
Y173245D02*
X282825D01*
X283643Y172870*
X283916Y172495*
X284188Y171745*
Y170620*
X283916Y169870*
X283643Y169495*
X282825Y169120*
X280370*
X286643Y173245D02*
Y165370D01*
Y173245D02*
X289097D01*
X289916Y172870*
X290188Y172495*
X290461Y171745*
Y170995*
X290188Y170245*
X289916Y169870*
X289097Y169495*
X286643*
X288552D02*
X290461Y165370D01*
X294825Y173245D02*
Y165370D01*
X292916Y173245D02*
X296734D01*
X299188D02*
Y165370D01*
X302461*
X326052Y173245D02*
Y165370D01*
X324143Y173245D02*
X327961D01*
X332052D02*
X331506Y172870D01*
X330961Y172120*
X330688Y171370*
X330416Y170245*
Y168370*
X330688Y167245*
X330961Y166495*
X331506Y165745*
X332052Y165370*
X333143*
X333688Y165745*
X334234Y166495*
X334506Y167245*
X334779Y168370*
Y170245*
X334506Y171370*
X334234Y172120*
X333688Y172870*
X333143Y173245*
X332052*
X337234D02*
Y165370D01*
X340506*
X45916Y149245D02*
X48916D01*
X47279Y146245*
X48097*
X48643Y145870*
X48916Y145495*
X49188Y144370*
Y143620*
X48916Y142495*
X48370Y141745*
X47552Y141370*
X46734*
X45916Y141745*
X45643Y142120*
X45370Y142870*
X141006Y149245D02*
X138279Y143995D01*
X142370*
X141006Y149245D02*
Y141370D01*
X171370Y147370D02*
X183370D01*
X177370Y141370D02*
Y153370D01*
X207006Y149245D02*
Y141370D01*
Y149245D02*
X210825Y141370D01*
Y149245D02*
Y141370D01*
X214916Y149245D02*
X214370Y148870D01*
X213825Y148120*
X213552Y147370*
X213279Y146245*
Y144370*
X213552Y143245*
X213825Y142495*
X214370Y141745*
X214916Y141370*
X216006*
X216552Y141745*
X217097Y142495*
X217370Y143245*
X217643Y144370*
Y146245*
X217370Y147370*
X217097Y148120*
X216552Y148870*
X216006Y149245*
X214916*
X260052D02*
Y141370D01*
X258143Y149245D02*
X261961D01*
X264416D02*
Y141370D01*
X268234Y149245D02*
Y141370D01*
X264416Y145495D02*
X268234D01*
X270688Y149245D02*
Y141370D01*
Y149245D02*
X273143D01*
X273961Y148870*
X274234Y148495*
X274506Y147745*
Y146995*
X274234Y146245*
X273961Y145870*
X273143Y145495*
X270688*
X272597D02*
X274506Y141370D01*
X317188Y148120D02*
Y141370D01*
X314734Y144745D02*
X319643D01*
X327006Y150745D02*
X322097Y138745D01*
X329461Y144745D02*
X334370D01*
X338461Y149245D02*
X337643Y148870D01*
X337097Y147745*
X336825Y145870*
Y144745*
X337097Y142870*
X337643Y141745*
X338461Y141370*
X339006*
X339825Y141745*
X340370Y142870*
X340643Y144745*
Y145870*
X340370Y147745*
X339825Y148870*
X339006Y149245*
X338461*
X343370Y142120D02*
X343097Y141745D01*
X343370Y141370*
X343643Y141745*
X343370Y142120*
X347734Y149245D02*
X346916Y148870D01*
X346370Y147745*
X346097Y145870*
Y144745*
X346370Y142870*
X346916Y141745*
X347734Y141370*
X348279*
X349097Y141745*
X349643Y142870*
X349916Y144745*
Y145870*
X349643Y147745*
X349097Y148870*
X348279Y149245*
X347734*
X47006Y125245D02*
X46188Y124870D01*
X45643Y123745*
X45370Y121870*
Y120745*
X45643Y118870*
X46188Y117745*
X47006Y117370*
X47552*
X48370Y117745*
X48916Y118870*
X49188Y120745*
Y121870*
X48916Y123745*
X48370Y124870*
X47552Y125245*
X47006*
X51916Y118120D02*
X51643Y117745D01*
X51916Y117370*
X52188Y117745*
X51916Y118120*
X58188Y122620D02*
X57916Y121495D01*
X57370Y120745*
X56552Y120370*
X56279*
X55461Y120745*
X54916Y121495*
X54643Y122620*
Y122995*
X54916Y124120*
X55461Y124870*
X56279Y125245*
X56552*
X57370Y124870*
X57916Y124120*
X58188Y122620*
Y120745*
X57916Y118870*
X57370Y117745*
X56552Y117370*
X56006*
X55188Y117745*
X54916Y118495*
X135825Y125245D02*
X138825D01*
X137188Y122245*
X138006*
X138552Y121870*
X138825Y121495*
X139097Y120370*
Y119620*
X138825Y118495*
X138279Y117745*
X137461Y117370*
X136643*
X135825Y117745*
X135552Y118120*
X135279Y118870*
X141825Y123370D02*
Y123745D01*
X142097Y124495*
X142370Y124870*
X142916Y125245*
X144006*
X144552Y124870*
X144825Y124495*
X145097Y123745*
Y122995*
X144825Y122245*
X144279Y121120*
X141552Y117370*
X145370*
X171370D02*
X183370Y129370D01*
X171370D02*
X183370Y117370D01*
X204006Y125245D02*
X206188Y121495D01*
Y117370*
X208370Y125245D02*
X206188Y121495D01*
X210825Y125245D02*
Y117370D01*
Y125245D02*
X214370D01*
X210825Y121495D02*
X213006D01*
X210825Y117370D02*
X214370D01*
X220643Y124120D02*
X220097Y124870D01*
X219279Y125245*
X218188*
X217370Y124870*
X216825Y124120*
Y123370*
X217097Y122620*
X217370Y122245*
X217916Y121870*
X219552Y121120*
X220097Y120745*
X220370Y120370*
X220643Y119620*
Y118495*
X220097Y117745*
X219279Y117370*
X218188*
X217370Y117745*
X216825Y118495*
X260052Y125245D02*
Y117370D01*
X258143Y125245D02*
X261961D01*
X264416D02*
Y117370D01*
X268234Y125245D02*
Y117370D01*
X264416Y121495D02*
X268234D01*
X270688Y125245D02*
Y117370D01*
Y125245D02*
X273143D01*
X273961Y124870*
X274234Y124495*
X274506Y123745*
Y122995*
X274234Y122245*
X273961Y121870*
X273143Y121495*
X270688*
X272597D02*
X274506Y117370D01*
X317188Y124120D02*
Y117370D01*
X314734Y120745D02*
X319643D01*
X327006Y126745D02*
X322097Y114745D01*
X329461Y120745D02*
X334370D01*
X338461Y125245D02*
X337643Y124870D01*
X337097Y123745*
X336825Y121870*
Y120745*
X337097Y118870*
X337643Y117745*
X338461Y117370*
X339006*
X339825Y117745*
X340370Y118870*
X340643Y120745*
Y121870*
X340370Y123745*
X339825Y124870*
X339006Y125245*
X338461*
X343370Y118120D02*
X343097Y117745D01*
X343370Y117370*
X343643Y117745*
X343370Y118120*
X347734Y125245D02*
X346916Y124870D01*
X346370Y123745*
X346097Y121870*
Y120745*
X346370Y118870*
X346916Y117745*
X347734Y117370*
X348279*
X349097Y117745*
X349643Y118870*
X349916Y120745*
Y121870*
X349643Y123745*
X349097Y124870*
X348279Y125245*
X347734*
X47006Y101245D02*
X46188Y100870D01*
X45643Y99745*
X45370Y97870*
Y96745*
X45643Y94870*
X46188Y93745*
X47006Y93370*
X47552*
X48370Y93745*
X48916Y94870*
X49188Y96745*
Y97870*
X48916Y99745*
X48370Y100870*
X47552Y101245*
X47006*
X51916Y94120D02*
X51643Y93745D01*
X51916Y93370*
X52188Y93745*
X51916Y94120*
X55188Y101245D02*
X58188D01*
X56552Y98245*
X57370*
X57916Y97870*
X58188Y97495*
X58461Y96370*
Y95620*
X58188Y94495*
X57643Y93745*
X56825Y93370*
X56006*
X55188Y93745*
X54916Y94120*
X54643Y94870*
X142097Y98620D02*
X141825Y97495D01*
X141279Y96745*
X140461Y96370*
X140188*
X139370Y96745*
X138825Y97495*
X138552Y98620*
Y98995*
X138825Y100120*
X139370Y100870*
X140188Y101245*
X140461*
X141279Y100870*
X141825Y100120*
X142097Y98620*
Y96745*
X141825Y94870*
X141279Y93745*
X140461Y93370*
X139916*
X139097Y93745*
X138825Y94495*
X171370Y93370D02*
X183370D01*
Y105370*
X171370*
Y93370*
X177370Y99370D02*
Y105370D01*
X204006Y101245D02*
X206188Y97495D01*
Y93370*
X208370Y101245D02*
X206188Y97495D01*
X210825Y101245D02*
Y93370D01*
Y101245D02*
X214370D01*
X210825Y97495D02*
X213006D01*
X210825Y93370D02*
X214370D01*
X220643Y100120D02*
X220097Y100870D01*
X219279Y101245*
X218188*
X217370Y100870*
X216825Y100120*
Y99370*
X217097Y98620*
X217370Y98245*
X217916Y97870*
X219552Y97120*
X220097Y96745*
X220370Y96370*
X220643Y95620*
Y94495*
X220097Y93745*
X219279Y93370*
X218188*
X217370Y93745*
X216825Y94495*
X260052Y101245D02*
Y93370D01*
X258143Y101245D02*
X261961D01*
X264416D02*
Y93370D01*
X268234Y101245D02*
Y93370D01*
X264416Y97495D02*
X268234D01*
X270688Y101245D02*
Y93370D01*
Y101245D02*
X273143D01*
X273961Y100870*
X274234Y100495*
X274506Y99745*
Y98995*
X274234Y98245*
X273961Y97870*
X273143Y97495*
X270688*
X272597D02*
X274506Y93370D01*
X317188Y100120D02*
Y93370D01*
X314734Y96745D02*
X319643D01*
X327006Y102745D02*
X322097Y90745D01*
X329461Y96745D02*
X334370D01*
X338461Y101245D02*
X337643Y100870D01*
X337097Y99745*
X336825Y97870*
Y96745*
X337097Y94870*
X337643Y93745*
X338461Y93370*
X339006*
X339825Y93745*
X340370Y94870*
X340643Y96745*
Y97870*
X340370Y99745*
X339825Y100870*
X339006Y101245*
X338461*
X343370Y94120D02*
X343097Y93745D01*
X343370Y93370*
X343643Y93745*
X343370Y94120*
X347734Y101245D02*
X346916Y100870D01*
X346370Y99745*
X346097Y97870*
Y96745*
X346370Y94870*
X346916Y93745*
X347734Y93370*
X348279*
X349097Y93745*
X349643Y94870*
X349916Y96745*
Y97870*
X349643Y99745*
X349097Y100870*
X348279Y101245*
X347734*
X47006Y77245D02*
X46188Y76870D01*
X45643Y75745*
X45370Y73870*
Y72745*
X45643Y70870*
X46188Y69745*
X47006Y69370*
X47552*
X48370Y69745*
X48916Y70870*
X49188Y72745*
Y73870*
X48916Y75745*
X48370Y76870*
X47552Y77245*
X47006*
X51916Y70120D02*
X51643Y69745D01*
X51916Y69370*
X52188Y69745*
X51916Y70120*
X57370Y77245D02*
X54643Y71995D01*
X58734*
X57370Y77245D02*
Y69370D01*
X135552Y75370D02*
Y75745D01*
X135825Y76495*
X136097Y76870*
X136643Y77245*
X137734*
X138279Y76870*
X138552Y76495*
X138825Y75745*
Y74995*
X138552Y74245*
X138006Y73120*
X135279Y69370*
X139097*
X141825Y75370D02*
Y75745D01*
X142097Y76495*
X142370Y76870*
X142916Y77245*
X144006*
X144552Y76870*
X144825Y76495*
X145097Y75745*
Y74995*
X144825Y74245*
X144279Y73120*
X141552Y69370*
X145370*
X177370D02*
X183370Y75370D01*
X177370Y81370*
X171370Y75370*
X177370Y69370*
Y75370D02*
Y81370D01*
X204006Y77245D02*
X206188Y73495D01*
Y69370*
X208370Y77245D02*
X206188Y73495D01*
X210825Y77245D02*
Y69370D01*
Y77245D02*
X214370D01*
X210825Y73495D02*
X213006D01*
X210825Y69370D02*
X214370D01*
X220643Y76120D02*
X220097Y76870D01*
X219279Y77245*
X218188*
X217370Y76870*
X216825Y76120*
Y75370*
X217097Y74620*
X217370Y74245*
X217916Y73870*
X219552Y73120*
X220097Y72745*
X220370Y72370*
X220643Y71620*
Y70495*
X220097Y69745*
X219279Y69370*
X218188*
X217370Y69745*
X216825Y70495*
X260052Y77245D02*
Y69370D01*
X258143Y77245D02*
X261961D01*
X264416D02*
Y69370D01*
X268234Y77245D02*
Y69370D01*
X264416Y73495D02*
X268234D01*
X270688Y77245D02*
Y69370D01*
Y77245D02*
X273143D01*
X273961Y76870*
X274234Y76495*
X274506Y75745*
Y74995*
X274234Y74245*
X273961Y73870*
X273143Y73495*
X270688*
X272597D02*
X274506Y69370D01*
X317188Y76120D02*
Y69370D01*
X314734Y72745D02*
X319643D01*
X327006Y78745D02*
X322097Y66745D01*
X329461Y72745D02*
X334370D01*
X338461Y77245D02*
X337643Y76870D01*
X337097Y75745*
X336825Y73870*
Y72745*
X337097Y70870*
X337643Y69745*
X338461Y69370*
X339006*
X339825Y69745*
X340370Y70870*
X340643Y72745*
Y73870*
X340370Y75745*
X339825Y76870*
X339006Y77245*
X338461*
X343370Y70120D02*
X343097Y69745D01*
X343370Y69370*
X343643Y69745*
X343370Y70120*
X347734Y77245D02*
X346916Y76870D01*
X346370Y75745*
X346097Y73870*
Y72745*
X346370Y70870*
X346916Y69745*
X347734Y69370*
X348279*
X349097Y69745*
X349643Y70870*
X349916Y72745*
Y73870*
X349643Y75745*
X349097Y76870*
X348279Y77245*
X347734*
X47006Y53245D02*
X46188Y52870D01*
X45643Y51745*
X45370Y49870*
Y48745*
X45643Y46870*
X46188Y45745*
X47006Y45370*
X47552*
X48370Y45745*
X48916Y46870*
X49188Y48745*
Y49870*
X48916Y51745*
X48370Y52870*
X47552Y53245*
X47006*
X51916Y46120D02*
X51643Y45745D01*
X51916Y45370*
X52188Y45745*
X51916Y46120*
X57916Y52120D02*
X57643Y52870D01*
X56825Y53245*
X56279*
X55461Y52870*
X54916Y51745*
X54643Y49870*
Y47995*
X54916Y46495*
X55461Y45745*
X56279Y45370*
X56552*
X57370Y45745*
X57916Y46495*
X58188Y47620*
Y47995*
X57916Y49120*
X57370Y49870*
X56552Y50245*
X56279*
X55461Y49870*
X54916Y49120*
X54643Y47995*
X138688Y51370D02*
Y51745D01*
X138961Y52495*
X139234Y52870*
X139779Y53245*
X140870*
X141416Y52870*
X141688Y52495*
X141961Y51745*
Y50995*
X141688Y50245*
X141143Y49120*
X138416Y45370*
X142234*
X171370D02*
X183370D01*
X171370Y57370*
X183370*
X171370Y45370*
X204006Y53245D02*
X206188Y49495D01*
Y45370*
X208370Y53245D02*
X206188Y49495D01*
X210825Y53245D02*
Y45370D01*
Y53245D02*
X214370D01*
X210825Y49495D02*
X213006D01*
X210825Y45370D02*
X214370D01*
X220643Y52120D02*
X220097Y52870D01*
X219279Y53245*
X218188*
X217370Y52870*
X216825Y52120*
Y51370*
X217097Y50620*
X217370Y50245*
X217916Y49870*
X219552Y49120*
X220097Y48745*
X220370Y48370*
X220643Y47620*
Y46495*
X220097Y45745*
X219279Y45370*
X218188*
X217370Y45745*
X216825Y46495*
X260052Y53245D02*
Y45370D01*
X258143Y53245D02*
X261961D01*
X264416D02*
Y45370D01*
X268234Y53245D02*
Y45370D01*
X264416Y49495D02*
X268234D01*
X270688Y53245D02*
Y45370D01*
Y53245D02*
X273143D01*
X273961Y52870*
X274234Y52495*
X274506Y51745*
Y50995*
X274234Y50245*
X273961Y49870*
X273143Y49495*
X270688*
X272597D02*
X274506Y45370D01*
X317188Y52120D02*
Y45370D01*
X314734Y48745D02*
X319643D01*
X327006Y54745D02*
X322097Y42745D01*
X329461Y48745D02*
X334370D01*
X338461Y53245D02*
X337643Y52870D01*
X337097Y51745*
X336825Y49870*
Y48745*
X337097Y46870*
X337643Y45745*
X338461Y45370*
X339006*
X339825Y45745*
X340370Y46870*
X340643Y48745*
Y49870*
X340370Y51745*
X339825Y52870*
X339006Y53245*
X338461*
X343370Y46120D02*
X343097Y45745D01*
X343370Y45370*
X343643Y45745*
X343370Y46120*
X347734Y53245D02*
X346916Y52870D01*
X346370Y51745*
X346097Y49870*
Y48745*
X346370Y46870*
X346916Y45745*
X347734Y45370*
X348279*
X349097Y45745*
X349643Y46870*
X349916Y48745*
Y49870*
X349643Y51745*
X349097Y52870*
X348279Y53245*
X347734*
X0Y0D02*
M02*
