*
*
G04 PADS 9.5 Build Number: 522968 generated Gerber (RS-274-X) file*
G04 PC Version=2.1*
*
%IN "mcu_test.pcb"*%
*
%MOIN*%
*
%FSLAX35Y35*%
*
*
*
*
G04 PC Standard Apertures*
*
*
G04 Thermal Relief Aperture macro.*
%AMTER*
1,1,$1,0,0*
1,0,$1-$2,0,0*
21,0,$3,$4,0,0,45*
21,0,$3,$4,0,0,135*
%
*
*
G04 Annular Aperture macro.*
%AMANN*
1,1,$1,0,0*
1,0,$2,0,0*
%
*
*
G04 Odd Aperture macro.*
%AMODD*
1,1,$1,0,0*
1,0,$1-0.005,0,0*
%
*
*
G04 PC Custom Aperture Macros*
*
*
*
*
*
*
G04 PC Aperture Table*
*
%ADD010C,0.001*%
%ADD011C,0.00787*%
%ADD012C,0.005*%
%ADD039C,0.01*%
*
*
*
*
G04 PC Circuitry*
G04 Layer Name mcu_test.pcb - circuitry*
%LPD*%
*
*
G04 PC Custom Flashes*
G04 Layer Name mcu_test.pcb - flashes*
%LPD*%
*
*
G04 PC Circuitry*
G04 Layer Name mcu_test.pcb - circuitry*
%LPD*%
*
G54D10*
G54D11*
G01X355906Y355906D02*
X358661D01*
X359252Y357087*
X359843Y355906*
X431496*
Y431496*
X355906*
Y355906*
G54D12*
X393701Y396982D02*
Y394638D01*
X393814Y394170*
X394042Y393857*
X394383Y393701*
X394610*
X394951Y393857*
X395178Y394170*
X395292Y394638*
Y396982*
X396314Y396357D02*
X396542Y396513D01*
X396883Y396982*
Y393701*
X432216Y345217D02*
X432103Y345529D01*
X431875Y345842*
X431648Y345998*
X431194*
X430966Y345842*
X430739Y345529*
X430625Y345217*
X430512Y344748*
Y343967*
X430625Y343498*
X430739Y343185*
X430966Y342873*
X431194Y342717*
X431648*
X431875Y342873*
X432103Y343185*
X432216Y343498*
X433239Y345373D02*
X433466Y345529D01*
X433807Y345998*
Y342717*
X446586Y420610D02*
X446473Y420923D01*
X446246Y421235*
X446018Y421391*
X445564*
X445336Y421235*
X445109Y420923*
X444996Y420610*
X444882Y420141*
Y419360*
X444996Y418891*
X445109Y418579*
X445336Y418266*
X445564Y418110*
X446018*
X446246Y418266*
X446473Y418579*
X446586Y418891*
X447723Y420610D02*
Y420766D01*
X447836Y421079*
X447950Y421235*
X448177Y421391*
X448632*
X448859Y421235*
X448973Y421079*
X449086Y420766*
Y420454*
X448973Y420141*
X448746Y419673*
X447609Y418110*
X449200*
X364894Y449154D02*
X364780Y449466D01*
X364553Y449779*
X364325Y449935*
X363871*
X363644Y449779*
X363416Y449466*
X363303Y449154*
X363189Y448685*
Y447904*
X363303Y447435*
X363416Y447122*
X363644Y446810*
X363871Y446654*
X364325*
X364553Y446810*
X364780Y447122*
X364894Y447435*
X366144Y449935D02*
X367394D01*
X366712Y448685*
X367053*
X367280Y448529*
X367394Y448372*
X367507Y447904*
Y447591*
X367394Y447122*
X367166Y446810*
X366825Y446654*
X366484*
X366144Y446810*
X366030Y446966*
X365916Y447279*
X344947Y367126D02*
X348228D01*
X344947D02*
Y368149D01*
X345103Y368490*
X345260Y368603*
X345572Y368717*
X345885*
X346197Y368603*
X346353Y368490*
X346510Y368149*
Y367126*
Y367921D02*
X348228Y368717D01*
X345572Y369740D02*
X345416Y369967D01*
X344947Y370308*
X348228*
X339173Y358596D02*
Y355315D01*
Y358596D02*
X340196D01*
X340537Y358440*
X340651Y358284*
X340651D02*
X340764Y357971D01*
Y357659*
X340651Y357346*
X340651D02*
X340537Y357190D01*
X340196Y357034*
X339173*
X339969D02*
X340764Y355315D01*
X341901Y357815D02*
Y357971D01*
X341901D02*
X342014Y358284D01*
X342128Y358440*
X342355Y358596*
X342810*
X343037Y358440*
X343151Y358284*
X343151D02*
X343264Y357971D01*
Y357659*
X343151Y357346*
X343151D02*
X342923Y356877D01*
X341787Y355315*
X343378*
X304199Y354286D02*
X306699D01*
X307168Y354172*
X307324Y354059*
X307480Y353831*
Y353604*
X307324Y353377*
X307168Y353263*
X306699Y353150*
X306387*
X304824Y355309D02*
X304668Y355536D01*
X304199Y355877*
X307480*
X303215Y440310D02*
X305715D01*
X306184Y440196*
X306340Y440082*
X306496Y439855*
Y439628*
X306340Y439401*
X306340D02*
X306184Y439287D01*
X305715Y439173*
X305402*
X303996Y441446D02*
X303840D01*
X303527Y441560*
X303371Y441673*
X303215Y441901*
X303215D02*
Y442355D01*
X303371Y442582*
X303527Y442696*
X303840Y442810*
X304152*
X304465Y442696*
X304934Y442469*
X306496Y441332*
Y442923*
X346982Y463780D02*
X344638D01*
X344170Y463666*
X343857Y463439*
X343701Y463098*
Y462870*
X343857Y462530*
X344170Y462302*
X344638Y462189*
X346982*
X346201Y461052D02*
X346357D01*
X346670Y460939*
X346826Y460825*
X346982Y460598*
Y460143*
X346826Y459916*
X346670Y459802*
X346357Y459689*
X346045*
X345732Y459802*
X345263Y460030*
X343701Y461166*
Y459575*
X323169Y456563D02*
X323482Y456677D01*
X323794Y456904*
X323951Y457131*
Y457586*
X323794Y457813*
X323482Y458040*
X323169Y458154*
X322701Y458268*
X321919*
X321451Y458154*
X321138Y458040*
X320826Y457813*
X320669Y457586*
Y457131*
X320826Y456904*
X321138Y456677*
X321451Y456563*
X323951Y454404D02*
X321763Y455540D01*
Y453836*
X323951Y454404D02*
X320669D01*
X373366Y461288D02*
X373679Y461401D01*
X373991Y461628*
X374147Y461856*
Y462310*
X373991Y462538*
X373679Y462765*
X373366Y462878*
X372897Y462992*
X372116*
X371647Y462878*
X371335Y462765*
X371022Y462538*
X370866Y462310*
Y461856*
X371022Y461628*
X371335Y461401*
X371647Y461288*
X374147Y458788D02*
Y459924D01*
X372741Y460038*
X372897Y459924*
X373054Y459583*
Y459242*
X372897Y458901*
X372585Y458674*
X372116Y458560*
X371804Y458674*
X371335Y458788*
X371022Y459015*
X370866Y459356*
Y459697*
X371022Y460038*
X371179Y460151*
X371491Y460265*
X324933Y436358D02*
X324819Y436671D01*
X324592Y436983*
X324365Y437140*
X323910*
X323683Y436983*
X323456Y436671*
X323342Y436358*
X323228Y435890*
Y435108*
X323342Y434640*
X323456Y434327*
X323683Y434015*
X323910Y433858*
X324365*
X324592Y434015*
X324819Y434327*
X324933Y434640*
X327319Y436671D02*
X327206Y436983D01*
X326865Y437140*
X326637*
X326297Y436983*
X326069Y436515*
X325956Y435733*
Y434952*
X326069Y434327*
X326297Y434015*
X326637Y433858*
X326751*
X327092Y434015*
X327319Y434327*
X327433Y434796*
Y434952*
X327319Y435421*
X327092Y435733*
X326751Y435890*
X326637*
X326297Y435733*
X326069Y435421*
X325956Y434952*
X339232Y404067D02*
X338920Y403953D01*
X338607Y403726*
X338451Y403499*
Y403044*
X338607Y402817*
X338920Y402589*
X339232Y402476*
X339701Y402362*
X340482*
X340951Y402476*
X341264Y402589*
X341576Y402817*
X341732Y403044*
Y403499*
X341576Y403726*
X341264Y403953*
X340951Y404067*
X338451Y406680D02*
X341732Y405544D01*
X338451Y405089D02*
Y406680D01*
X337657Y385957D02*
X337345Y385843D01*
X337032Y385616*
X336876Y385388*
Y384934*
X337032Y384707*
X337345Y384479*
X337657Y384366*
X338126Y384252*
X338907*
X339376Y384366*
X339689Y384479*
X340001Y384707*
X340157Y384934*
Y385388*
X340001Y385616*
X339689Y385843*
X339376Y385957*
X336876Y387547D02*
X337032Y387207D01*
X337345Y387093*
X337657*
X337970Y387207*
X338126Y387434*
X338282Y387888*
X338439Y388229*
X338751Y388457*
X339064Y388570*
X339532*
X339845Y388457*
X340001Y388343*
X340157Y388002*
Y387547*
X340001Y387207*
X339845Y387093*
X339532Y386979*
X339064*
X338751Y387093*
X338439Y387320*
X338282Y387661*
X338126Y388116*
X337970Y388343*
X337657Y388457*
X337345*
X337032Y388343*
X336876Y388002*
Y387547*
X370996Y339508D02*
X370882Y339820D01*
X370655Y340133*
X370428Y340289*
X369973*
X369746Y340133*
X369519Y339820*
X369405Y339508*
X369291Y339039*
Y338258*
X369405Y337789*
X369519Y337477*
X369746Y337164*
X369973Y337008*
X370428*
X370655Y337164*
X370882Y337477*
X370996Y337789*
X373496Y339195D02*
X373382Y338727D01*
X373155Y338414*
X372814Y338258*
X372700*
X372360Y338414*
X372132Y338727*
X372019Y339195*
Y339352*
X372132Y339820*
X372360Y340133*
X372700Y340289*
X372814*
X373155Y340133*
X373382Y339820*
X373496Y339195*
Y338414*
X373382Y337633*
X373155Y337164*
X372814Y337008*
X372587*
X372246Y337164*
X372132Y337477*
X400264Y343957D02*
X400378Y343644D01*
X400605Y343332*
X400832Y343175*
X401287*
X401514Y343332*
X401741Y343644*
X401855Y343957*
X401969Y344425*
Y345207*
X401855Y345675*
X401741Y345988*
X401514Y346300*
X401287Y346457*
X400832*
X400605Y346300*
X400378Y345988*
X400264Y345675*
X399241Y343800D02*
X399014Y343644D01*
X398673Y343175*
Y346457*
X396969Y343175D02*
X397309Y343332D01*
X397537Y343800*
X397650Y344582*
Y345050*
X397537Y345832*
X397309Y346300*
X396969Y346457*
X396741*
X396400Y346300*
X396173Y345832*
X396059Y345050*
Y344582*
X396173Y343800*
X396400Y343332*
X396741Y343175*
X396969*
X412334Y340689D02*
X412221Y341001D01*
X411994Y341314*
X411766Y341470*
X411312*
X411084Y341314*
X410857Y341001*
X410744Y340689*
X410630Y340220*
Y339439*
X410744Y338970*
X410857Y338658*
X411084Y338345*
X411312Y338189*
X411766*
X411994Y338345*
X412221Y338658*
X412334Y338970*
X413357Y340845D02*
X413584Y341001D01*
X413925Y341470*
Y338189*
X414948Y340845D02*
X415175Y341001D01*
X415516Y341470*
Y338189*
X448563Y366799D02*
X448875Y366913D01*
X449188Y367140*
X449344Y367368*
Y367822*
X449188Y368049*
X448875Y368277*
X448563Y368390*
X448094Y368504*
X447313*
X446844Y368390*
X446532Y368277*
X446219Y368049*
X446063Y367822*
Y367368*
X446219Y367140*
X446532Y366913*
X446844Y366799*
X448719Y365777D02*
X448875Y365549D01*
X449344Y365208*
X446063*
X448563Y364072D02*
X448719D01*
X449032Y363958*
X449188Y363845*
X449344Y363618*
Y363163*
X449188Y362936*
X449032Y362822*
X448719Y362708*
X448407*
X448094Y362822*
X447625Y363049*
X446063Y364186*
Y362595*
X448563Y392784D02*
X448875Y392897D01*
X449188Y393125*
X449344Y393352*
Y393806*
X449188Y394034*
X448875Y394261*
X448563Y394375*
X448094Y394488*
X447313*
X446844Y394375*
X446532Y394261*
X446219Y394034*
X446063Y393806*
Y393352*
X446219Y393125*
X446532Y392897*
X446844Y392784*
X448719Y391761D02*
X448875Y391534D01*
X449344Y391193*
X446063*
X449344Y389943D02*
Y388693D01*
X448094Y389375*
Y389034*
X447938Y388806*
X447782Y388693*
X447313Y388579*
X447000*
X446532Y388693*
X446219Y388920*
X446063Y389261*
Y389602*
X446219Y389943*
X446375Y390056*
X446688Y390170*
X448563Y412469D02*
X448875Y412582D01*
X449188Y412810*
X449344Y413037*
Y413491*
X449188Y413719*
X448875Y413946*
X448563Y414060*
X448094Y414173*
X447313*
X446844Y414060*
X446532Y413946*
X446219Y413719*
X446063Y413491*
Y413037*
X446219Y412810*
X446532Y412582*
X446844Y412469*
X448719Y411446D02*
X448875Y411219D01*
X449344Y410878*
X446063*
X449344Y408719D02*
X447157Y409855D01*
Y408151*
X449344Y408719D02*
X446063D01*
X446586Y439508D02*
X446473Y439820D01*
X446246Y440133*
X446018Y440289*
X445564*
X445336Y440133*
X445109Y439820*
X444996Y439508*
X444882Y439039*
Y438258*
X444996Y437789*
X445109Y437477*
X445336Y437164*
X445564Y437008*
X446018*
X446246Y437164*
X446473Y437477*
X446586Y437789*
X447609Y439664D02*
X447836Y439820D01*
X448177Y440289*
Y437008*
X450677Y440289D02*
X449541D01*
X449427Y438883*
X449541Y439039*
X449882Y439195*
X450223*
X450564Y439039*
X450791Y438727*
X450905Y438258*
X450791Y437945*
X450677Y437477*
X450450Y437164*
X450109Y437008*
X449768*
X449427Y437164*
X449314Y437320*
X449200Y437633*
X406429Y448169D02*
X406315Y448482D01*
X406088Y448794*
X405861Y448951*
X405406*
X405179Y448794*
X404952Y448482*
X404838Y448169*
X404724Y447701*
Y446919*
X404838Y446451*
X404952Y446138*
X405179Y445826*
X405406Y445669*
X405861*
X406088Y445826*
X406315Y446138*
X406429Y446451*
X407452Y448326D02*
X407679Y448482D01*
X408020Y448951*
Y445669*
X410406Y448482D02*
X410293Y448794D01*
X409952Y448951*
X409724*
X409384Y448794*
X409384D02*
X409156Y448326D01*
X409043Y447544*
Y446763*
X409156Y446138*
X409384Y445826*
X409384D02*
X409724Y445669D01*
X409838*
X410179Y445826*
X410406Y446138*
X410520Y446607*
Y446763*
X410406Y447232*
X410179Y447544*
X409838Y447701*
X409724*
X409384Y447544*
X409384D02*
X409156Y447232D01*
X409043Y446763*
X384775Y448169D02*
X384662Y448482D01*
X384435Y448794*
X384435D02*
X384207Y448951D01*
X383753*
X383525Y448794*
X383298Y448482*
X383185Y448169*
X383185D02*
X383071Y447701D01*
Y446919*
X383185Y446451*
X383185D02*
X383298Y446138D01*
X383525Y445826*
X383753Y445669*
X384207*
X384435Y445826*
X384435D02*
X384662Y446138D01*
X384775Y446451*
X385798Y448326D02*
X386025Y448482D01*
X386366Y448951*
Y445669*
X388980Y448951D02*
X387844Y445669D01*
X387389Y448951D02*
X388980D01*
X353279Y449350D02*
X353166Y449663D01*
X352938Y449975*
X352711Y450132*
X352257*
X352029Y449975*
X351802Y449663*
X351688Y449350*
X351575Y448882*
Y448100*
X351688Y447632*
X351802Y447319*
X352029Y447007*
X352257Y446850*
X352711*
X352938Y447007*
X353166Y447319*
X353279Y447632*
X354302Y449507D02*
X354529Y449663D01*
X354870Y450132*
Y446850*
X356461Y450132D02*
X356120Y449975D01*
X356007Y449663*
Y449350*
X356120Y449038*
X356348Y448882*
X356802Y448725*
X357143Y448569*
X357370Y448257*
X357484Y447944*
Y447475*
X357370Y447163*
X357257Y447007*
X356916Y446850*
X356461*
X356120Y447007*
X356007Y447163*
X355893Y447475*
Y447944*
X356007Y448257*
X356234Y448569*
X356575Y448725*
X357029Y448882*
X357257Y449038*
X357370Y449350*
Y449663*
X357257Y449975*
X356916Y450132*
X356461*
X349933Y354862D02*
X349819Y355175D01*
X349592Y355487*
X349365Y355643*
X348910*
X348683Y355487*
X348456Y355175*
X348342Y354862*
X348228Y354393*
Y353612*
X348342Y353143*
X348456Y352831*
X348683Y352518*
X348910Y352362*
X349365*
X349592Y352518*
X349819Y352831*
X349933Y353143*
X350956Y355018D02*
X351183Y355175D01*
X351524Y355643*
Y352362*
X354024Y354550D02*
X353910Y354081D01*
X353683Y353768*
X353342Y353612*
X353228*
X352887Y353768*
X352660Y354081*
X352547Y354550*
Y354706*
X352660Y355175*
X352887Y355487*
X353228Y355643*
X353342*
X353683Y355487*
X353910Y355175*
X354024Y354550*
Y353768*
X353910Y352987*
X353683Y352518*
X353342Y352362*
X353115*
X352774Y352518*
X352660Y352831*
X483006Y433903D02*
X480506D01*
X480037Y434017*
X479881Y434130*
X479724Y434358*
Y434585*
X479881Y434812*
X480037Y434926*
X480506Y435039*
X480818*
X483006Y432653D02*
Y431403D01*
X481756Y432085*
Y431744*
X481599Y431517*
X481443Y431403*
X480974Y431289*
X480662*
X480193Y431403*
X479881Y431630*
X479724Y431971*
Y432312*
X479881Y432653*
X480037Y432767*
X480349Y432880*
X483596Y361856D02*
X481096D01*
X480627Y361969*
X480471Y362083*
X480315Y362310*
Y362538*
X480471Y362765*
X480627Y362878*
X481096Y362992*
X481409*
X483596Y359697D02*
X481409Y360833D01*
Y359128*
X483596Y359697D02*
X480315D01*
X387008Y325328D02*
X388599Y322047D01*
Y325328D02*
X387008Y322047D01*
X389622Y324703D02*
X389849Y324860D01*
X390190Y325328*
Y322047*
X396980Y319429D02*
X396866Y319742D01*
X396866D02*
X396639Y320054D01*
X396412Y320210*
X395957*
X395730Y320054*
X395503Y319742*
X395389Y319429*
X395276Y318960*
Y318179*
X395389Y317710*
X395503Y317398*
X395730Y317085*
X395957Y316929*
X396412*
X396639Y317085*
X396866Y317398*
X396866D02*
X396980Y317710D01*
X398116Y319429D02*
Y319585D01*
X398116D02*
X398230Y319898D01*
X398344Y320054*
X398571Y320210*
X399026*
X399253Y320054*
X399366Y319898*
X399366D02*
X399480Y319585D01*
Y319273*
X399366Y318960*
X399366D02*
X399139Y318492D01*
X398003Y316929*
X399594*
X401298Y320210D02*
X400957Y320054D01*
X400730Y319585*
X400616Y318804*
X400616D02*
Y318335D01*
X400616D02*
X400730Y317554D01*
X400957Y317085*
X401298Y316929*
X401526*
X401866Y317085*
X401866D02*
X402094Y317554D01*
X402207Y318335*
Y318804*
X402094Y319585*
X401866Y320054*
X401866D02*
X401526Y320210D01*
X401298*
X410638Y329266D02*
Y325984D01*
X409843Y329266D02*
X411433D01*
X412456Y328641D02*
X412683Y328797D01*
X413024Y329266*
X413024D02*
Y325984D01*
X299614Y473360D02*
Y470079D01*
X298819Y473360D02*
X300410D01*
X301546Y472579D02*
Y472735D01*
X301660Y473047*
X301773Y473204*
X302001Y473360*
X302455*
X302683Y473204*
X302796Y473047*
X302910Y472735*
Y472422*
X302796Y472110*
X302569Y471641*
X301433Y470079*
X303023*
X484260Y472966D02*
Y469685D01*
X483465Y472966D02*
X485055D01*
X486305D02*
X487555D01*
X486874Y471716*
X487215*
X487442Y471560*
X487555Y471404*
X487669Y470935*
Y470623*
X487555Y470154*
X487328Y469841*
X486987Y469685*
X486646*
X486305Y469841*
X486192Y469998*
X486078Y470310*
X301189Y316667D02*
Y313386D01*
X300394Y316667D02*
X301985D01*
X304144D02*
X303007Y314480D01*
X304712*
X304144Y316667D02*
Y313386D01*
X482685Y317061D02*
Y313780D01*
X481890Y317061D02*
X483481D01*
X485981D02*
X484844D01*
X484731Y315655*
X484844Y315811*
X485185Y315967*
X485526*
X485867Y315811*
X486094Y315498*
X486208Y315030*
X486094Y314717*
X485981Y314248*
X485753Y313936*
X485412Y313780*
X485072*
X484731Y313936*
X484617Y314092*
X484503Y314405*
X306243Y392142D02*
X305930Y391915D01*
X305774Y391574*
Y391119*
X305930Y390778*
X306243Y390551*
X306555*
X306868Y390665*
X307024Y390778*
X307180Y391006*
X307493Y391688*
X307649Y391915*
X307805Y392028*
X308118Y392142*
X308586*
X308899Y391915*
X309055Y391574*
Y391119*
X308899Y390778*
X308586Y390551*
X305774Y393165D02*
X309055D01*
X305774D02*
Y394188D01*
X305930Y394528*
X306086Y394642*
X306399Y394756*
X306711*
X307024Y394642*
X307180Y394528*
X307336Y394188*
Y393165D02*
Y394188D01*
X307493Y394528*
X307649Y394642*
X307961Y394756*
X308430*
X308743Y394642*
X308899Y394528*
X309055Y394188*
Y393165*
X306399Y395778D02*
X306243Y396006D01*
X305774Y396347*
X309055*
X301631Y415732D02*
X301944Y415959D01*
X302100Y416300*
Y416755*
X301944Y417096*
X301631Y417323*
X301319*
X301006Y417209*
X300850Y417096*
X300694Y416868*
X300381Y416186*
X300225Y415959*
X300069Y415846*
X299756Y415732*
X299288*
X298975Y415959*
X298819Y416300*
Y416755*
X298975Y417096*
X299288Y417323*
X302100Y414709D02*
X298819D01*
X302100D02*
Y413686D01*
X301944Y413346*
X301788Y413232*
X301475Y413118*
X301163*
X300850Y413232*
X300694Y413346*
X300538Y413686*
Y414709D02*
Y413686D01*
X300381Y413346*
X300225Y413232*
X299913Y413118*
X299444*
X299131Y413232*
X298975Y413346*
X298819Y413686*
Y414709*
X301319Y411982D02*
X301475D01*
X301788Y411868*
X301944Y411755*
X302100Y411527*
Y411073*
X301944Y410846*
X301788Y410732*
X301475Y410618*
X301163*
X300850Y410732*
X300381Y410959*
X298819Y412096*
Y410505*
X305774Y399606D02*
X309055D01*
X305774D02*
Y400629D01*
X305930Y400970*
X306086Y401084*
X306399Y401197*
X306711*
X307024Y401084*
X307180Y400970*
X307336Y400629*
Y399606*
Y400402D02*
X309055Y401197D01*
X305774Y402447D02*
Y403697D01*
X307024Y403015*
Y403356*
X307180Y403584*
X307336Y403697*
X307805Y403811*
X308118*
X308586Y403697*
X308899Y403470*
X309055Y403129*
Y402788*
X308899Y402447*
X308743Y402334*
X308430Y402220*
X305774Y427559D02*
X309055D01*
X305774D02*
Y428582D01*
X305930Y428923*
X306086Y429036*
X306399Y429150*
X306711*
X307024Y429036*
X307180Y428923*
X307336Y428582*
Y427559*
Y428355D02*
X309055Y429150D01*
X305774Y431309D02*
X307961Y430173D01*
Y431877*
X305774Y431309D02*
X309055D01*
X301631Y425574D02*
X301944Y425802D01*
X302100Y426143*
Y426597*
X301944Y426938*
X301631Y427165*
X301319*
X301006Y427052*
X300850Y426938*
X300694Y426711*
X300381Y426029*
X300225Y425802*
X300069Y425688*
X299756Y425574*
X299288*
X298975Y425802*
X298819Y426143*
Y426597*
X298975Y426938*
X299288Y427165*
X302100Y424552D02*
X298819D01*
X302100D02*
Y423529D01*
X301944Y423188*
X301788Y423074*
X301475Y422961*
X301163*
X300850Y423074*
X300694Y423188*
X300538Y423529*
Y424552D02*
Y423529D01*
X300381Y423188*
X300225Y423074*
X299913Y422961*
X299444*
X299131Y423074*
X298975Y423188*
X298819Y423529*
Y424552*
X302100Y421711D02*
Y420461D01*
X300850Y421143*
Y420802*
X300694Y420574*
X300538Y420461*
X300069Y420347*
X299756*
X299288Y420461*
X298975Y420688*
X298819Y421029*
Y421370*
X298975Y421711*
X299131Y421824*
X299444Y421938*
X306243Y438205D02*
X305930Y437978D01*
X305774Y437637*
Y437182*
X305930Y436841*
X306243Y436614*
X306555*
X306868Y436728*
X307024Y436841*
X307180Y437069*
X307493Y437751*
X307649Y437978*
X307805Y438091*
X308118Y438205*
X308586*
X308899Y437978*
X309055Y437637*
Y437182*
X308899Y436841*
X308586Y436614*
X305774Y439228D02*
X309055D01*
X305774D02*
Y440251D01*
X305930Y440591*
X306086Y440705*
X306399Y440819*
X306711*
X307024Y440705*
X307180Y440591*
X307336Y440251*
Y439228D02*
Y440251D01*
X307493Y440591*
X307649Y440705*
X307961Y440819*
X308430*
X308743Y440705*
X308899Y440591*
X309055Y440251*
Y439228*
X305774Y442978D02*
X307961Y441841D01*
Y443546*
X305774Y442978D02*
X309055D01*
X322457Y360293D02*
X322230Y360605D01*
X321889Y360762*
X321434*
X321093Y360605*
X320866Y360293*
Y359980*
X320980Y359668*
X321093Y359512*
X321321Y359355*
X322003Y359043*
X322230Y358887*
X322343Y358730*
X322457Y358418*
Y357949*
X322230Y357637*
X321889Y357480*
X321434*
X321093Y357637*
X320866Y357949*
X323480Y360762D02*
Y357480D01*
Y360762D02*
X324503D01*
X324843Y360605*
X324957Y360449*
X325071Y360137*
Y359824*
X324957Y359512*
X324843Y359355*
X324503Y359199*
X323480D02*
X324503D01*
X324843Y359043*
X324957Y358887*
X325071Y358574*
Y358105*
X324957Y357793*
X324843Y357637*
X324503Y357480*
X323480*
X327571Y360762D02*
X326434D01*
X326321Y359355*
X326434Y359512*
X326775Y359668*
X327116*
X327457Y359512*
X327684Y359199*
X327798Y358730*
X327684Y358418*
X327571Y357949*
X327343Y357637*
X327003Y357480*
X326662*
X326321Y357637*
X326207Y357793*
X326093Y358105*
X322457Y355962D02*
X322230Y356275D01*
X321889Y356431*
X321434*
X321093Y356275*
X320866Y355962*
Y355650*
X320980Y355337*
X321093Y355181*
X321321Y355025*
X322003Y354712*
X322230Y354556*
X322343Y354400*
X322457Y354087*
Y353618*
X322230Y353306*
X321889Y353150*
X321434*
X321093Y353306*
X320866Y353618*
X323480Y356431D02*
Y353150D01*
Y356431D02*
X324503D01*
X324843Y356275*
X324957Y356118*
X325071Y355806*
Y355493*
X324957Y355181*
X324843Y355025*
X324503Y354868*
X323480D02*
X324503D01*
X324843Y354712*
X324957Y354556*
X325071Y354243*
Y353775*
X324957Y353462*
X324843Y353306*
X324503Y353150*
X323480*
X327457Y355962D02*
X327343Y356275D01*
X327003Y356431*
X326775*
X326434Y356275*
X326207Y355806*
X326093Y355025*
Y354243*
X326207Y353618*
X326434Y353306*
X326775Y353150*
X326889*
X327230Y353306*
X327457Y353618*
X327571Y354087*
Y354243*
X327457Y354712*
X327230Y355025*
X326889Y355181*
X326775*
X326434Y355025*
X326207Y354712*
X326093Y354243*
X322457Y364624D02*
X322230Y364936D01*
X321889Y365092*
X321434*
X321093Y364936*
X320866Y364624*
Y364311*
X320980Y363999*
X321093Y363842*
X321321Y363686*
X322003Y363374*
X322230Y363217*
X322343Y363061*
X322457Y362749*
Y362280*
X322230Y361967*
X321889Y361811*
X321434*
X321093Y361967*
X320866Y362280*
X323480Y365092D02*
Y361811D01*
Y365092D02*
X324503D01*
X324843Y364936*
X324957Y364780*
X325071Y364467*
Y364155*
X324957Y363842*
X324843Y363686*
X324503Y363530*
X323480D02*
X324503D01*
X324843Y363374*
X324957Y363217*
X325071Y362905*
Y362436*
X324957Y362124*
X324843Y361967*
X324503Y361811*
X323480*
X327684Y365092D02*
X326548Y361811D01*
X326093Y365092D02*
X327684D01*
X325213Y368954D02*
X324986Y369267D01*
X324645Y369423*
X324190*
X323849Y369267*
X323622Y368954*
Y368642*
X323736Y368329*
X323849Y368173*
X324077Y368017*
X324758Y367704*
X324986Y367548*
X325099Y367392*
X325213Y367079*
Y366610*
X324986Y366298*
X324645Y366142*
X324190*
X323849Y366298*
X323622Y366610*
X326236Y369423D02*
Y366142D01*
Y369423D02*
X327258D01*
X327599Y369267*
X327713Y369110*
X327827Y368798*
Y368485*
X327713Y368173*
X327599Y368017*
X327258Y367860*
X326236D02*
X327258D01*
X327599Y367704*
X327713Y367548*
X327827Y367235*
Y366767*
X327713Y366454*
X327599Y366298*
X327258Y366142*
X326236*
X329418Y369423D02*
X329077Y369267D01*
X328963Y368954*
Y368642*
X329077Y368329*
X329304Y368173*
X329758Y368017*
X330099Y367860*
X330327Y367548*
X330440Y367235*
Y366767*
X330327Y366454*
X330213Y366298*
X329872Y366142*
X329418*
X329418D02*
X329077Y366298D01*
X328963Y366454*
X328849Y366767*
Y367235*
X328963Y367548*
X329190Y367860*
X329531Y368017*
X329986Y368173*
X330213Y368329*
X330327Y368642*
Y368954*
X330213Y369267*
X329872Y369423*
X329418*
X430971Y329921D02*
X434252D01*
Y331285*
X431596Y332308D02*
X431439Y332535D01*
X430971Y332876*
X434252*
G54D39*
X293307Y297244D02*
X494094D01*
Y490157*
X293307*
Y297244*
X0Y0D02*
M02*
