%
T1C.01575F095S3
X027244Y030236
X027717Y034094
X026256Y035575
X027413Y036732
X026791Y03737
X027559Y038138
X025634Y038531
X027445Y040339
X034882Y045394
X03235Y043543
X028835Y041732
X031898Y041673
X034508Y041457
X029996Y040571
X03335Y040299
X028602Y039181
X034878Y038764
X034882Y035965
X028882Y035264
X033484Y034579
X03465Y033409
X030823Y033319
X031677Y032764
X029252Y032677
X032843Y031602
X03454Y028594
X036043Y034803
X037508Y036268
X036339Y037433
X036035Y039921
X078071Y037717
T2C.02362F197S55
X019764Y038543
X021614Y041248
X021614Y04263
X016457Y042717
X020394Y049528
X025004Y043768
X026925Y043583
X026925Y041835
X024209Y041335
X034646Y018583
X03622Y018583
X037795Y018583
X040984Y021024
X036575Y030197
X037835Y030945
X04315Y032362
X037677Y032992
X041969Y033543
X039961Y037441
X03815Y037638
X05185Y03815
X045591Y034803
X075506Y015958
X074639Y01773
X073655Y018399
X07248Y019173
X077047Y019173
X07563Y024055
X077913Y025591
X077165Y02626
X075354Y032441
X070984Y043346
X081339Y036929
X084409Y035276
X081535Y028819
X082047Y02815
X082835Y026969
X083301Y025604
X083852Y025092
X083419Y024108
X079285Y023635
X084718Y023596
X079797Y023123
X083346Y022047
X091614Y019646
X095151Y022178
X092002Y022493
X091293Y023163
X094324Y036785
X092277Y037572
X098852Y036391
X097362Y028622
T3C.03543F197S55
X01378Y043602
X01378Y044587
X01378Y045571
X01378Y046555
X01378Y047933
X01378Y048917
X01378Y049902
X01378Y050886
X025276Y063976
X025276Y062008
X023228Y050886
X023228Y049902
X023228Y048917
X023228Y047933
X023228Y046555
X023228Y045571
X023228Y044587
X023228Y043602
X032831Y046504
X026378Y056555
X029921Y056555
X029921Y057539
X026378Y057539
X029921Y058524
X026378Y058524
X029921Y059508
X026378Y059508
X033815Y046504
X034799Y046504
X035783Y046504
X036768Y046504
X037432Y02929
X036736Y028594
X03604Y027898
X035344Y027202
X037205Y013189
X035236Y013189
X03622Y013189
X038189Y013189
X04495Y039432
X04495Y040416
X04495Y0414
X042008Y04374
X043008Y04374
X041008Y04374
X040008Y04374
X041008Y05274
X043008Y05274
X040008Y05274
X042008Y05274
X063793Y013911
X064777Y013911
X066746Y013911
X065761Y013911
X092041Y031726
X092041Y03271
X092041Y033694
X092041Y034678
X095289Y013517
X094305Y013517
X09332Y013517
X096273Y013517
T4C.04724F139S55
X014528Y012087
X020827Y012087
X014528Y020748
X020827Y020748
X017362Y04374
X035433Y055984
X027126Y020748
X027126Y012087
X080709Y034488
X052047Y046654
X100906Y055236
X096575Y039291
X103189Y021831
T5C.08661F074S55
X065663Y02773
X065663Y033163
X067238Y033163
X070387Y033163
X068813Y033163
X067238Y02773
X068813Y02773
X070387Y02773
X079443Y041509
X082592Y041509
X081017Y041509
X084167Y041509
X081017Y046942
X082592Y046942
X084167Y046942
X079443Y046942
T6C.11024F069S658
X054246Y020604
X099521Y044226
X081805Y020604
T7C.11024F069S658
X01063Y013976
X016929Y013976
X01063Y015945
X016929Y015945
X01063Y022638
X016929Y022638
X01063Y024606
X016929Y024606
X023228Y024606
X029134Y024606
X023228Y022638
X029134Y022638
X023228Y015945
X029134Y015945
X029134Y013976
X023228Y013976
T8C.11811F069S658
X008183Y011942
X008183Y064698
X104246Y064698
X104246Y011942
T9C.17717F035S1033
X054246Y01273
X066457Y04689
X069291Y04689
X081805Y01273
X091647Y044226
M30
