*
*
G04 PADS 9.5 Build Number: 522968 generated Gerber (RS-274-X) file*
G04 PC Version=2.1*
*
%IN "Layout.pcb"*%
*
%MOIN*%
*
%FSLAX35Y35*%
*
*
*
*
G04 PC Standard Apertures*
*
*
G04 Thermal Relief Aperture macro.*
%AMTER*
1,1,$1,0,0*
1,0,$1-$2,0,0*
21,0,$3,$4,0,0,45*
21,0,$3,$4,0,0,135*
%
*
*
G04 Annular Aperture macro.*
%AMANN*
1,1,$1,0,0*
1,0,$2,0,0*
%
*
*
G04 Odd Aperture macro.*
%AMODD*
1,1,$1,0,0*
1,0,$1-0.005,0,0*
%
*
*
G04 PC Custom Aperture Macros*
*
*
*
*
*
*
G04 PC Aperture Table*
*
%ADD010C,0.001*%
%ADD011C,0.00787*%
%ADD012C,0.005*%
%ADD039C,0.01*%
*
*
*
*
G04 PC Circuitry*
G04 Layer Name Layout.pcb - circuitry*
%LPD*%
*
*
G04 PC Custom Flashes*
G04 Layer Name Layout.pcb - flashes*
%LPD*%
*
*
G04 PC Circuitry*
G04 Layer Name Layout.pcb - circuitry*
%LPD*%
*
G54D10*
G54D11*
G01X261904Y373622D02*
X263852Y371673D01*
X265105Y372091*
X264688Y370838*
X315354Y320171*
X368805Y373622*
X315354Y427073*
X261904Y373622*
G54D12*
X466171Y413458D02*
X463671D01*
X463202Y413572*
X463046Y413685*
X462890Y413913*
Y414140*
X463046Y414367*
X463202Y414481*
X463671Y414594*
X463984*
X466171Y410844D02*
X462890Y411981D01*
X466171Y412435D02*
Y410844D01*
X246719Y562947D02*
X249219D01*
X249687Y562834*
X249687D02*
X249844Y562720D01*
X250000Y562493*
Y562266*
X249844Y562038*
X249687Y561925*
X249687D02*
X249219Y561811D01*
X248906*
X247344Y563970D02*
X247187Y564197D01*
X247187D02*
X246719Y564538D01*
X250000*
X246719Y566243D02*
X246875Y565902D01*
X247344Y565675*
X248125Y565561*
X248594*
X249375Y565675*
X249844Y565902*
X250000Y566243*
Y566470*
X249844Y566811*
X249375Y567038*
X248594Y567152*
X248125*
X247344Y567038*
X246875Y566811*
X246719Y566470*
Y566243*
X122179Y504769D02*
X119679D01*
X119210Y504883*
X119054Y504996*
X118898Y505224*
Y505451*
X119054Y505678*
X119210Y505792*
X119679Y505906*
X119991*
X121554Y503746D02*
X121710Y503519D01*
X122179Y503178*
X118898*
X121710Y500792D02*
X122023Y500906D01*
X122179Y501246*
Y501474*
X122023Y501815*
X121554Y502042*
X120773Y502156*
X119991*
X119366Y502042*
X119054Y501815*
X118898Y501474*
Y501360*
X119054Y501019*
X119366Y500792*
X119835Y500678*
X119991*
X120460Y500792*
X120773Y501019*
X120929Y501360*
Y501474*
X120773Y501815*
X120460Y502042*
X119991Y502156*
X252100Y501226D02*
X249600D01*
X249131Y501339*
X248975Y501453*
X248819Y501680*
Y501908*
X248975Y502135*
X249131Y502249*
X249600Y502362*
X249913*
X251475Y500203D02*
X251631Y499976D01*
X252100Y499635*
X248819*
X252100Y497021D02*
X248819Y498158D01*
X252100Y498612D02*
Y497021D01*
X115486Y457131D02*
X112986D01*
X112517Y457245*
X112361Y457359*
X112205Y457586*
Y457813*
X112361Y458040*
X112517Y458154*
X112986Y458268*
X113298*
X114861Y456109D02*
X115017Y455881D01*
X115486Y455540*
X112205*
X115486Y453950D02*
X115330Y454290D01*
X115017Y454404*
X114705*
X114392Y454290*
X114236Y454063*
X114080Y453609*
X113923Y453268*
X113611Y453040*
X113298Y452927*
X112830*
X112517Y453040*
X112361Y453154*
X112205Y453495*
Y453950*
X112361Y454290*
X112517Y454404*
X112830Y454518*
X113298*
X113611Y454404*
X113923Y454177*
X114080Y453836*
X114236Y453381*
X114392Y453154*
X114705Y453040*
X115017*
X115330Y453154*
X115486Y453495*
Y453950*
X248951Y455163D02*
X246451D01*
X245982Y455276*
X245826Y455390*
X245669Y455617*
Y455845*
X245826Y456072*
X245982Y456186*
X246451Y456299*
X246763*
X248326Y454140D02*
X248482Y453913D01*
X248951Y453572*
X245669*
X247857Y451072D02*
X247388Y451186D01*
X247076Y451413*
X246919Y451754*
Y451867*
X247076Y452208*
X247388Y452436*
X247857Y452549*
X248013*
X248482Y452436*
X248794Y452208*
X248951Y451867*
Y451754*
X248794Y451413*
X248482Y451186*
X247857Y451072*
X247076*
X246294Y451186*
X245826Y451413*
X245669Y451754*
Y451981*
X245826Y452322*
X246138Y452436*
X349001Y291152D02*
X350769Y289385D01*
X351020Y288973*
X351050Y288782*
X351000Y288511*
X350839Y288350*
X350568Y288300*
X350377Y288330*
X349965Y288581*
X349744Y288802*
X351020Y292508D02*
X350719Y292649D01*
X350367Y292518*
X350206Y292358*
X350206D02*
X350076Y292006D01*
X350247Y291514*
X350719Y290881*
X351271Y290329*
X351793Y289967*
X352175Y289907*
X352527Y290037*
X352607Y290118*
X352738Y290469*
X352677Y290851*
X352426Y291263*
X352316Y291373*
X351904Y291624*
X351522Y291685*
X351171Y291554*
X351090Y291474*
X350960Y291122*
X351020Y290740*
X351271Y290329*
X393746Y132939D02*
Y135439D01*
X393859Y135908*
X393973Y136064*
X394200Y136220*
X394427*
X394655Y136064*
X394768Y135908*
X394882Y135439*
Y135127*
X392155Y132939D02*
X392496Y133095D01*
X392609Y133408*
Y133720*
X392496Y134033*
X392268Y134189*
X391814Y134345*
X391473Y134502*
X391246Y134814*
X391132Y135127*
Y135595*
X391246Y135908*
X391359Y136064*
X391700Y136220*
X392155*
X392496Y136064*
X392609Y135908*
X392723Y135595*
Y135127*
X392609Y134814*
X392382Y134502*
X392041Y134345*
X391586Y134189*
X391359Y134033*
X391246Y133720*
Y133408*
X391359Y133095*
X391700Y132939*
X392155*
X285301Y564128D02*
X287801D01*
X288270Y564015*
X288426Y563901*
X288583Y563674*
Y563447*
X288426Y563219*
X288270Y563106*
X287801Y562992*
X287489*
X286395Y566628D02*
X286864Y566515D01*
X287176Y566288*
X287333Y565947*
Y565833*
X287176Y565492*
X286864Y565265*
X286395Y565151*
X286239*
X285770Y565265*
X285458Y565492*
X285301Y565833*
Y565947*
X285458Y566288*
X285770Y566515*
X286395Y566628*
X287176*
X287958Y566515*
X288426Y566288*
X288583Y565947*
Y565719*
X288426Y565378*
X288114Y565265*
X648318Y155775D02*
Y153275D01*
X648204Y152806*
X648090Y152650*
X647863Y152493*
X647636*
X647409Y152650*
X647295Y152806*
X647181Y153275*
Y153587*
X649340Y155150D02*
X649568Y155306D01*
X649909Y155775*
Y152493*
X943593Y151838D02*
Y149338D01*
X943480Y148869*
X943366Y148713*
X943139Y148556*
X942911*
X942684Y148713*
X942571Y148869*
X942457Y149338*
Y149650*
X944730Y151056D02*
Y151213D01*
X944843Y151525*
X944957Y151681*
X945184Y151838*
X945639*
X945866Y151681*
X945980Y151525*
X946093Y151213*
Y150900*
X945980Y150588*
X945752Y150119*
X944616Y148556*
X946207*
X903743Y327646D02*
X906243D01*
X906711Y327532*
X906868Y327418*
X907024Y327191*
Y326964*
X906868Y326736*
X906711Y326623*
X906243Y326509*
X905930*
X903743Y328896D02*
Y330146D01*
X904993Y329464*
Y329805*
X905149Y330032*
X905305Y330146*
X905774Y330259*
X906086*
X906555Y330146*
X906868Y329918*
X907024Y329577*
Y329236*
X906868Y328896*
X906711Y328782*
X906399Y328668*
X188583Y461679D02*
Y464023D01*
X188469Y464492*
X188242Y464804*
X187901Y464961*
X187674*
X187333Y464804*
X187105Y464492*
X186992Y464023*
Y461679*
X185855Y462461D02*
Y462304D01*
X185742Y461992*
X185628Y461836*
X185401Y461679*
X184946*
X184719Y461836*
X184605Y461992*
X184492Y462304*
Y462617*
X184605Y462929*
X184833Y463398*
X185969Y464961*
X184378*
X183128Y461679D02*
X181878D01*
X182560Y462929*
X182219*
X181992Y463086*
X181878Y463242*
X181764Y463711*
Y464023*
X181878Y464492*
X182105Y464804*
X182446Y464961*
X182787*
X183128Y464804*
X183242Y464648*
X183355Y464336*
X431862Y390597D02*
Y392940D01*
X431749Y393409*
X431521Y393722*
X431180Y393878*
X430953*
X430612Y393722*
X430385Y393409*
X430271Y392940*
Y390597*
X429249Y391222D02*
X429021Y391065D01*
X428680Y390597*
Y393878*
X426180Y390597D02*
X427317D01*
X427430Y392003*
X427317Y391847*
X426976Y391690*
X426635*
X426294Y391847*
X426067Y392159*
X425953Y392628*
X426067Y392940*
X426180Y393409*
X426408Y393722*
X426749Y393878*
X427089*
X427430Y393722*
X427544Y393565*
X427658Y393253*
X849108Y334291D02*
X846764D01*
X846296Y334178*
X845983Y333950*
X845827Y333610*
Y333382*
X845983Y333041*
X846296Y332814*
X846764Y332700*
X849108*
X848483Y331678D02*
X848639Y331450D01*
X849108Y331110*
X845827*
X849108Y329860D02*
Y328610D01*
X847858Y329291*
Y328950*
X847702Y328723*
X847546Y328610*
X847077Y328496*
X846764*
X846296Y328610*
X845983Y328837*
X845827Y329178*
Y329519*
X845983Y329860*
X846139Y329973*
X846452Y330087*
X281322Y312576D02*
X279002Y310256D01*
X279966Y309292*
X282568Y310447D02*
X282839Y310397D01*
X283412Y310487*
X281091Y308167*
X730315Y327297D02*
Y324016D01*
X731679*
X732815Y326516D02*
Y326672D01*
X732929Y326984*
X732929D02*
X733042Y327141D01*
X733270Y327297*
X733724*
X733951Y327141*
X734065Y326984*
X734065D02*
X734179Y326672D01*
Y326359*
X734179D02*
X734065Y326047D01*
X733838Y325578*
X732701Y324016*
X734292*
X396457Y190420D02*
Y193701D01*
X395093*
X393843Y190420D02*
X392593D01*
X393275Y191670*
X392934*
X392707Y191826*
X392593Y191982*
X392479Y192451*
Y192763*
X392593Y193232*
X392820Y193545*
X393161Y193701*
X393502*
X393843Y193545*
X393957Y193388*
X394070Y193076*
X807373Y445538D02*
Y443038D01*
X807259Y442570*
X807145Y442413*
X806918Y442257*
X806691*
X806464Y442413*
X806350Y442570*
X806236Y443038*
Y443351*
X809532Y445538D02*
X808395Y443351D01*
X810100*
X809532Y445538D02*
Y442257D01*
X690927Y301181D02*
Y303681D01*
X691040Y304150*
X691154Y304306*
X691381Y304462*
X691609*
X691836Y304306*
X691950Y304150*
X692063Y303681*
Y303368*
X688427Y301181D02*
X689563D01*
X689677Y302587*
X689563Y302431*
X689222Y302275*
X688881*
X688540Y302431*
X688313Y302743*
X688200Y303212*
X688313Y303525*
X688427Y303993*
X688654Y304306*
X688995Y304462*
X689336*
X689677Y304306*
X689790Y304150*
X689904Y303837*
X421925Y389398D02*
X421811Y389710D01*
X421584Y390023*
X421357Y390179*
X420902*
X420675Y390023*
X420448Y389710*
X420334Y389398*
X420220Y388929*
Y388148*
X420334Y387679*
X420448Y387366*
X420675Y387054*
X420902Y386898*
X421357*
X421584Y387054*
X421811Y387366*
X421925Y387679*
X422948Y389554D02*
X423175Y389710D01*
X423516Y390179*
Y386898*
X424652Y389398D02*
Y389554D01*
X424766Y389866*
X424880Y390023*
X425107Y390179*
X425561*
X425789Y390023*
X425902Y389866*
X426016Y389554*
Y389241*
X425902Y388929*
X425675Y388460*
X424539Y386898*
X426130*
X349117Y288538D02*
X348977Y288237D01*
X348917Y287855*
X348967Y287584*
X349288Y287263*
X349559Y287213*
X349941Y287273*
X350242Y287413*
X350654Y287665*
X351207Y288217*
X351458Y288629*
X351598Y288930*
X351659Y289312*
X351608Y289583*
X351287Y289904*
X351016Y289955*
X350634Y289894*
X350333Y289754*
X348284Y289151D02*
X348013Y289201D01*
X347440Y289111*
X349760Y291431*
X346556Y289995D02*
X345672Y290879D01*
X347038Y291280*
X346797Y291522*
X346747Y291793*
X346777Y291984*
X347028Y292395*
X347249Y292616*
X347661Y292867*
X348043Y292928*
X348394Y292797*
X348635Y292556*
X348766Y292205*
X348736Y292014*
X348595Y291712*
X743571Y436083D02*
X743685Y435770D01*
X743912Y435458*
X744139Y435301*
X744594*
X744821Y435458*
X745048Y435770*
X745162Y436083*
X745276Y436551*
Y437333*
X745162Y437801*
X745048Y438114*
X744821Y438426*
X744594Y438583*
X744139*
X743912Y438426*
X743685Y438114*
X743571Y437801*
X742435Y436083D02*
Y435926D01*
X742321Y435614*
X742207Y435458*
X741980Y435301*
X741526*
X741298Y435458*
X741185Y435614*
X741071Y435926*
Y436239*
X741185Y436551*
X741412Y437020*
X742548Y438583*
X740957*
X739707Y435301D02*
X738457D01*
X739139Y436551*
X738798*
X738571Y436708*
X738457Y436864*
X738344Y437333*
Y437645*
X738457Y438114*
X738685Y438426*
X739026Y438583*
X739366*
X739366D02*
X739707Y438426D01*
X739821Y438270*
X739935Y437958*
X746331Y422579D02*
X746217Y422891D01*
X745990Y423204*
X745762Y423360*
X745308*
X745081Y423204*
X744853Y422891*
X744740Y422579*
X744626Y422110*
Y421329*
X744740Y420860*
X744853Y420547*
X745081Y420235*
X745308Y420079*
X745762*
X745990Y420235*
X746217Y420547*
X746331Y420860*
X747467Y422579D02*
Y422735D01*
X747581Y423047*
X747694Y423204*
X747921Y423360*
X748376*
X748603Y423204*
X748717Y423047*
X748831Y422735*
Y422422*
X748717Y422110*
X748490Y421641*
X747353Y420079*
X748944*
X751103Y423360D02*
X749967Y421172D01*
X751671*
X751103Y423360D02*
Y420079D01*
X385728Y362689D02*
X385416Y362575D01*
X385103Y362348*
X384947Y362121*
Y361666*
X385103Y361439*
X385416Y361212*
X385728Y361098*
X386197Y360984*
X386978*
X387447Y361098*
X387760Y361212*
X388072Y361439*
X388228Y361666*
Y362121*
X388072Y362348*
X387760Y362575*
X387447Y362689*
X385728Y363825D02*
X385572D01*
X385260Y363939*
X385103Y364052*
X384947Y364280*
Y364734*
X385103Y364962*
X385260Y365075*
X385572Y365189*
X385885*
X386197Y365075*
X386666Y364848*
X388228Y363712*
Y365302*
X384947Y367802D02*
Y366666D01*
X386353Y366552*
X386197Y366666*
X386041Y367007*
Y367348*
X386197Y367689*
X386510Y367916*
X386978Y368030*
X387291Y367916*
X387760Y367802*
X388072Y367575*
X388228Y367234*
Y366893*
X388072Y366552*
X387916Y366439*
X387603Y366325*
X337330Y431766D02*
X337190Y431465D01*
X337129Y431083*
X337180Y430812*
X337501Y430490*
X337772Y430440*
X338154Y430500*
X338455Y430641*
X338867Y430892*
X339419Y431445*
X339671Y431856*
X339811Y432158*
X339871Y432539*
X339821Y432811*
X339500Y433132*
X339229Y433182*
X338847Y433122*
X338546Y432981*
X336527Y432569D02*
X336416Y432459D01*
X336115Y432318*
X335924Y432288*
X335653Y432338*
X335332Y432660*
X335281Y432931*
X335311Y433122*
X335452Y433423*
X335673Y433644*
X335974Y433785*
X336467Y433956*
X338375Y434257*
X337250Y435382*
X333574Y435081D02*
X333433Y434779D01*
X333564Y434428*
X333724Y434267*
X334076Y434136*
X334568Y434307*
X335201Y434779*
X335753Y435332*
X336115Y435854*
X336175Y436236*
X336045Y436587*
X335964Y436667*
X335613Y436798*
X335231Y436738*
X334819Y436487*
X334709Y436376*
X334458Y435964*
X334397Y435583*
X334528Y435231*
X334608Y435151*
X334960Y435020*
X335342Y435081*
X335753Y435332*
X291174Y318116D02*
X291314Y318417D01*
X291375Y318799*
X291324Y319070*
X291003Y319392*
X290732Y319442*
X290350Y319381*
X290049Y319241*
X289637Y318990*
X289084Y318437*
X288833Y318026*
X288693Y317724*
X288632Y317343*
X288683Y317071*
X289004Y316750*
X289275Y316700*
X289657Y316760*
X289958Y316901*
X293253Y317142D02*
X290902Y316398D01*
X292108Y315193*
X293253Y317142D02*
X290933Y314821D01*
X294860Y315535D02*
X294508Y315665D01*
X294016Y315494*
X293383Y315022*
X293052Y314691*
X292580Y314058*
X292409Y313566*
X292540Y313214*
X292700Y313054*
X293052Y312923*
X293544Y313094*
X294177Y313566*
X294508Y313897*
X294980Y314530*
X295151Y315022*
X295021Y315374*
X294860Y315535*
X176122Y447571D02*
X175810Y447457D01*
X175497Y447230*
X175341Y447003*
Y446548*
X175497Y446321*
X175810Y446093*
X176122Y445980*
X176591Y445866*
X177372*
X177841Y445980*
X178153Y446093*
X178466Y446321*
X178622Y446548*
Y447003*
X178466Y447230*
X178153Y447457*
X177841Y447571*
X175341Y449730D02*
X177528Y448593D01*
Y450298*
X175341Y449730D02*
X178622D01*
X175810Y452684D02*
X175497Y452571D01*
X175341Y452230*
Y452003*
X175497Y451662*
X175966Y451434*
X176747Y451321*
X177528*
X178153Y451434*
X178466Y451662*
X178622Y452003*
Y452116*
X178466Y452457*
X178153Y452684*
X177685Y452798*
X177528*
X177060Y452684*
X176747Y452457*
X176591Y452116*
Y452003*
X176747Y451662*
X177060Y451434*
X177528Y451321*
X853708Y346845D02*
X853568Y346543D01*
X853507Y346162*
X853558Y345891*
X853879Y345569*
X854150Y345519*
X854532Y345579*
X854833Y345720*
X855245Y345971*
X855797Y346523*
X856049Y346935*
X856189Y347236*
X856249Y347618*
X856199Y347889*
X855878Y348211*
X855607Y348261*
X855225Y348201*
X854924Y348060*
X851629Y347819D02*
X853979Y348562D01*
X852774Y349768*
X851629Y347819D02*
X853949Y350139D01*
X850102Y349346D02*
X850454Y349215D01*
X850755Y349356*
X850976Y349577*
X851117Y349878*
X851067Y350149*
X850856Y350581*
X850725Y350933*
X850785Y351314*
X850926Y351616*
X851257Y351947*
X851559Y352088*
X851750Y352118*
X852101Y351987*
X852423Y351666*
X852553Y351314*
X852523Y351123*
X852382Y350822*
X852051Y350491*
X851750Y350350*
X851368Y350290*
X851016Y350420*
X850585Y350631*
X850313Y350682*
X850012Y350541*
X849791Y350320*
X849650Y350019*
X849781Y349667*
X850102Y349346*
X809783Y357453D02*
X809471Y357339D01*
X809158Y357112*
X809002Y356884*
Y356430*
X809158Y356203*
X809471Y355975*
X809783Y355862*
X810252Y355748*
X811033*
X811502Y355862*
X811815Y355975*
X812127Y356203*
X812283Y356430*
Y356884*
X812127Y357112*
X811815Y357339*
X811502Y357453*
X809002Y359612D02*
X811190Y358475D01*
Y360180*
X809002Y359612D02*
X812283D01*
X810096Y362680D02*
X810565Y362566D01*
X810877Y362339*
X811033Y361998*
Y361884*
X810877Y361543*
X810565Y361316*
X810096Y361203*
X809940*
X809471Y361316*
X809158Y361543*
X809002Y361884*
Y361998*
X809158Y362339*
X809471Y362566*
X810096Y362680*
X810877*
X811658Y362566*
X812127Y362339*
X812283Y361998*
Y361771*
X812127Y361430*
X811815Y361316*
X770996Y378484D02*
X770882Y378797D01*
X770655Y379109*
X770428Y379266*
X770428D02*
X769973D01*
X769973D02*
X769746Y379109D01*
X769519Y378797*
X769405Y378484*
X769291Y378016*
X769291D02*
Y377234D01*
X769405Y376766*
X769405D02*
X769519Y376453D01*
X769746Y376141*
X769746D02*
X769973Y375984D01*
X770428*
X770655Y376141*
X770655D02*
X770882Y376453D01*
X770996Y376766*
X773496Y379266D02*
X772360D01*
X772360D02*
X772246Y377859D01*
X772360Y378016*
X772360D02*
X772700Y378172D01*
X773041*
X773382Y378016*
X773382D02*
X773610Y377703D01*
X773723Y377234*
X773610Y376922*
X773496Y376453*
X773269Y376141*
X773269D02*
X772928Y375984D01*
X772587*
X772246Y376141*
X772246D02*
X772132Y376297D01*
X772019Y376609*
X775428Y379266D02*
X775087Y379109D01*
X774860Y378641*
X774860D02*
X774746Y377859D01*
Y377391*
X774746D02*
X774860Y376609D01*
X775087Y376141*
X775087D02*
X775428Y375984D01*
X775655*
X775996Y376141*
X775996D02*
X776223Y376609D01*
X776337Y377391*
X776337D02*
Y377859D01*
X776223Y378641*
X776223D02*
X775996Y379109D01*
X775655Y379266*
X775655D02*
X775428D01*
X765413Y349736D02*
X765101Y349622D01*
X764788Y349395*
X764632Y349168*
Y348713*
X764788Y348486*
X765101Y348259*
X765413Y348145*
X765882Y348031*
X766663*
X767132Y348145*
X767445Y348259*
X767757Y348486*
X767913Y348713*
Y349168*
X767757Y349395*
X767445Y349622*
X767132Y349736*
X764632Y352236D02*
Y351100D01*
X766038Y350986*
X765882Y351100*
X765726Y351441*
Y351781*
X765882Y352122*
X766195Y352350*
X766663Y352463*
X766976Y352350*
X767445Y352236*
X767757Y352009*
X767913Y351668*
Y351327*
X767757Y350986*
X767601Y350872*
X767288Y350759*
X765257Y353486D02*
X765101Y353713D01*
X764632Y354054*
X767913*
X645540Y159705D02*
X645653Y159392D01*
X645880Y159080*
X646108Y158923*
X646562*
X646790Y159080*
X647017Y159392*
X647130Y159705*
X647244Y160173*
Y160955*
X647130Y161423*
X647017Y161736*
X646790Y162048*
X646562Y162205*
X646108*
X645880Y162048*
X645653Y161736*
X645540Y161423*
X643040Y158923D02*
X644176D01*
X644290Y160330*
X644176Y160173*
X643835Y160017*
X643494*
X643153Y160173*
X642926Y160486*
X642812Y160955*
X642926Y161267*
X643040Y161736*
X643267Y162048*
X643608Y162205*
X643949*
X644290Y162048*
X644403Y161892*
X644517Y161580*
X641221Y158923D02*
X641562Y159080D01*
X641676Y159392*
Y159705*
X641562Y160017*
X641335Y160173*
X640880Y160330*
X640540Y160486*
X640312Y160798*
X640199Y161111*
Y161580*
X640312Y161892*
X640426Y162048*
X640767Y162205*
X641221*
X641562Y162048*
X641676Y161892*
X641790Y161580*
Y161111*
X641676Y160798*
X641449Y160486*
X641108Y160330*
X640653Y160173*
X640426Y160017*
X640312Y159705*
Y159392*
X640426Y159080*
X640767Y158923*
X641221*
X940028Y152618D02*
X940141Y152306D01*
X940369Y151993*
X940596Y151837*
X941050*
X941278Y151993*
X941505Y152306*
X941619Y152618*
X941732Y153087*
Y153868*
X941619Y154337*
X941505Y154649*
X941278Y154962*
X941050Y155118*
X940596*
X940369Y154962*
X940141Y154649*
X940028Y154337*
X937528Y151837D02*
X938664D01*
X938778Y153243*
X938664Y153087*
X938323Y152931*
X937982*
X937641Y153087*
X937414Y153399*
X937300Y153868*
X937414Y154181*
X937528Y154649*
X937755Y154962*
X938096Y155118*
X938437*
X938778Y154962*
X938891Y154806*
X939005Y154493*
X934800Y152931D02*
X934914Y153399D01*
X935141Y153712*
X935482Y153868*
X935596*
X935937Y153712*
X936164Y153399*
X936278Y152931*
Y152774*
X936164Y152306*
X935937Y151993*
X935596Y151837*
X935482*
X935141Y151993*
X934914Y152306*
X934800Y152931*
Y153712*
X934914Y154493*
X935141Y154962*
X935482Y155118*
X935710*
X936050Y154962*
X936164Y154649*
X900925Y324280D02*
X901238Y324393D01*
X901550Y324621*
X901706Y324848*
Y325302*
X901550Y325530*
X901238Y325757*
X900925Y325871*
X900456Y325984*
X899675*
X899206Y325871*
X898894Y325757*
X898581Y325530*
X898425Y325302*
Y324848*
X898581Y324621*
X898894Y324393*
X899206Y324280*
X901238Y321893D02*
X901550Y322007D01*
X901706Y322348*
Y322575*
X901550Y322916*
X901081Y323143*
X900300Y323257*
X899519*
X898894Y323143*
X898581Y322916*
X898425Y322575*
Y322462*
X898581Y322121*
X898894Y321893*
X899363Y321780*
X899519*
X899988Y321893*
X900300Y322121*
X900456Y322462*
Y322575*
X900300Y322916*
X899988Y323143*
X899519Y323257*
X901706Y320075D02*
X901550Y320416D01*
X901081Y320643*
X900300Y320757*
X899831*
X899050Y320643*
X898581Y320416*
X898425Y320075*
Y319848*
X898581Y319507*
X899050Y319280*
X899831Y319166*
X900300*
X901081Y319280*
X901550Y319507*
X901706Y319848*
Y320075*
X356831Y199870D02*
X357143Y199984D01*
X357456Y200211*
X357612Y200438*
Y200893*
X357456Y201120*
X357143Y201348*
X356831Y201461*
X356362Y201575*
X355581*
X355112Y201461*
X354799Y201348*
X354487Y201120*
X354331Y200893*
Y200438*
X354487Y200211*
X354799Y199984*
X355112Y199870*
X356987Y198848D02*
X357143Y198620D01*
X357612Y198279*
X354331*
X357612Y196575D02*
X357456Y196916D01*
X356987Y197143*
X356206Y197257*
X355737*
X354956Y197143*
X354487Y196916*
X354331Y196575*
Y196348*
X354487Y196007*
X354956Y195779*
X355737Y195666*
X356206*
X356987Y195779*
X357456Y196007*
X357612Y196348*
Y196575*
X372579Y199870D02*
X372891Y199984D01*
X373204Y200211*
X373360Y200438*
Y200893*
X373204Y201120*
X372891Y201348*
X372579Y201461*
X372110Y201575*
X371329*
X370860Y201461*
X370547Y201348*
X370235Y201120*
X370079Y200893*
Y200438*
X370235Y200211*
X370547Y199984*
X370860Y199870*
X372735Y198848D02*
X372891Y198620D01*
X373360Y198279*
X370079*
X372735Y197257D02*
X372891Y197029D01*
X373360Y196688*
X370079*
X408453Y435098D02*
X408567Y434786D01*
X408794Y434473*
X409021Y434317*
X409476*
X409703Y434473*
X409930Y434786*
X410044Y435098*
X410157Y435567*
Y436348*
X410044Y436817*
X409930Y437130*
X409703Y437442*
X409476Y437598*
X409021*
X408794Y437442*
X408567Y437130*
X408453Y436817*
X407430Y434942D02*
X407203Y434786D01*
X406862Y434317*
Y437598*
X404703Y434317D02*
X405839Y436505D01*
X404135*
X404703Y434317D02*
Y437598D01*
X316398Y146193D02*
X316085Y146079D01*
X315773Y145852*
X315616Y145625*
Y145170*
X315773Y144943*
X316085Y144715*
X316398Y144602*
X316866Y144488*
X317648*
X318116Y144602*
X318429Y144715*
X318741Y144943*
X318898Y145170*
Y145625*
X318741Y145852*
X318429Y146079*
X318116Y146193*
X316241Y147215D02*
X316085Y147443D01*
X315616Y147784*
X318898*
X315616Y150284D02*
Y149147D01*
X317023Y149034*
X316866Y149147*
X316710Y149488*
Y149829*
X316866Y150170*
X317179Y150397*
X317648Y150511*
X317960Y150397*
X318429Y150284*
X318741Y150056*
X318898Y149715*
Y149375*
X318741Y149034*
X318585Y148920*
X318273Y148806*
X316398Y232807D02*
X316085Y232693D01*
X315773Y232466*
X315616Y232239*
Y231784*
X315773Y231557*
X316085Y231330*
X316398Y231216*
X316866Y231102*
X317648*
X318116Y231216*
X318429Y231330*
X318741Y231557*
X318898Y231784*
Y232239*
X318741Y232466*
X318429Y232693*
X318116Y232807*
X316241Y233830D02*
X316085Y234057D01*
X315616Y234398*
X318898*
X316085Y236784D02*
X315773Y236671D01*
X315616Y236330*
Y236102*
X315773Y235761*
X316241Y235534*
X317023Y235421*
X317804*
X318429Y235534*
X318741Y235761*
X318898Y236102*
Y236216*
X318741Y236557*
X318429Y236784*
X317960Y236898*
X317804*
X317335Y236784*
X317023Y236557*
X316866Y236216*
Y236102*
X317023Y235761*
X317335Y235534*
X317804Y235421*
X1017059Y197500D02*
X1016945Y197813D01*
X1016945D02*
X1016718Y198125D01*
X1016491Y198281*
X1016036*
X1015809Y198125*
X1015582Y197813*
X1015582D02*
X1015468Y197500D01*
X1015354Y197031*
Y196250*
X1015468Y195781*
X1015582Y195469*
X1015809Y195156*
X1016036Y195000*
X1016491*
X1016718Y195156*
X1016945Y195469*
X1017059Y195781*
X1018082Y197656D02*
X1018309Y197813D01*
X1018309D02*
X1018650Y198281D01*
Y195000*
X1021263Y198281D02*
X1020127Y195000D01*
X1019673Y198281D02*
X1021263D01*
X1045728Y180838D02*
X1045416Y180725D01*
X1045103Y180497*
X1044947Y180270*
Y179816*
X1045103Y179588*
X1045416Y179361*
X1045728Y179247*
X1046197Y179134*
X1046978*
X1047447Y179247*
X1047760Y179361*
X1048072Y179588*
X1048228Y179816*
Y180270*
X1048072Y180497*
X1047760Y180725*
X1047447Y180838*
X1045572Y181861D02*
X1045416Y182088D01*
X1044947Y182429*
X1048228*
X1044947Y184020D02*
X1045103Y183679D01*
X1045416Y183566*
X1045728*
X1046041Y183679*
X1046197Y183907*
X1046353Y184361*
X1046510Y184702*
X1046822Y184929*
X1047135Y185043*
X1047603*
X1047916Y184929*
X1048072Y184816*
X1048228Y184475*
Y184020*
X1048072Y183679*
X1047916Y183566*
X1047603Y183452*
X1047135*
X1046822Y183566*
X1046510Y183793*
X1046353Y184134*
X1046197Y184588*
X1046041Y184816*
X1045728Y184929*
X1045416*
X1045103Y184816*
X1044947Y184475*
Y184020*
X1009248Y341206D02*
X1008936Y341092D01*
X1008623Y340865*
X1008467Y340638*
Y340183*
X1008623Y339956*
X1008936Y339729*
X1009248Y339615*
X1009717Y339501*
X1010498*
X1010967Y339615*
X1011279Y339729*
X1011592Y339956*
X1011748Y340183*
Y340638*
X1011592Y340865*
X1011279Y341092*
X1010967Y341206*
X1009248Y342342D02*
X1009092D01*
X1008779Y342456*
X1008623Y342570*
X1008623D02*
X1008467Y342797D01*
Y343251*
X1008623Y343479*
X1008779Y343592*
X1009092Y343706*
X1009404*
X1009717Y343592*
X1010186Y343365*
X1011748Y342229*
Y343820*
X1009092Y344842D02*
X1008936Y345070D01*
X1008936D02*
X1008467Y345410D01*
X1011748*
X958855Y346718D02*
X958542Y346604D01*
X958230Y346377*
X958073Y346149*
Y345695*
X958230Y345468*
X958542Y345240*
X958855Y345127*
X959323Y345013*
X960105*
X960573Y345127*
X960886Y345240*
X961198Y345468*
X961355Y345695*
Y346149*
X961198Y346377*
X960886Y346604*
X960573Y346718*
X958855Y347854D02*
X958698D01*
X958386Y347968*
X958230Y348081*
X958073Y348309*
Y348763*
X958230Y348990*
X958386Y349104*
X958698Y349218*
X959011*
X959323Y349104*
X959792Y348877*
X961355Y347740*
Y349331*
X958855Y350468D02*
X958698D01*
X958386Y350581*
X958230Y350695*
X958073Y350922*
Y351377*
X958230Y351604*
X958386Y351718*
X958698Y351831*
X959011*
X959323Y351718*
X959792Y351490*
X961355Y350354*
Y351945*
X504067Y437539D02*
X503953Y437852D01*
X503726Y438164*
X503499Y438321*
X503044*
X502817Y438164*
X502589Y437852*
X502476Y437539*
X502362Y437071*
Y436289*
X502476Y435821*
X502589Y435508*
X502817Y435196*
X503044Y435039*
X503499*
X503726Y435196*
X503953Y435508*
X504067Y435821*
X506226Y438321D02*
X505089Y436133D01*
X506794*
X506226Y438321D02*
Y435039D01*
X507817Y437696D02*
X508044Y437852D01*
X508385Y438321*
Y435039*
X517972Y419618D02*
X517660Y419504D01*
X517347Y419277*
X517191Y419050*
Y418595*
X517347Y418368*
X517660Y418141*
X517972Y418027*
X518441Y417913*
X519222*
X519691Y418027*
X520004Y418141*
X520316Y418368*
X520472Y418595*
Y419050*
X520316Y419277*
X520004Y419504*
X519691Y419618*
X517191Y421777D02*
X519379Y420641D01*
Y422345*
X517191Y421777D02*
X520472D01*
X517972Y423482D02*
X517816D01*
X517504Y423595*
X517347Y423709*
X517191Y423936*
Y424391*
X517347Y424618*
X517504Y424732*
X517816Y424845*
X518129*
X518441Y424732*
X518910Y424504*
X520472Y423368*
Y424959*
X361603Y592894D02*
X361716Y592581D01*
X361943Y592269*
X362171Y592112*
X362625*
X362853Y592269*
X363080Y592581*
X363193Y592894*
X363307Y593362*
Y594144*
X363193Y594612*
X363080Y594925*
X362853Y595237*
X362625Y595394*
X362171*
X361943Y595237*
X361716Y594925*
X361603Y594612*
X359443Y592112D02*
X360580Y594300D01*
X358875*
X359443Y592112D02*
Y595394D01*
X357625Y592112D02*
X356375D01*
X357057Y593362*
X356716*
X356489Y593519*
X356375Y593675*
X356262Y594144*
Y594456*
X356375Y594925*
X356603Y595237*
X356943Y595394*
X357284*
X357625Y595237*
X357739Y595081*
X357853Y594769*
X333406Y620933D02*
X333718Y621047D01*
X334031Y621274*
X334187Y621501*
Y621956*
X334031Y622183*
X333718Y622411*
X333406Y622524*
X332937Y622638*
X332156*
X331687Y622524*
X331374Y622411*
X331062Y622183*
X330906Y621956*
Y621501*
X331062Y621274*
X331374Y621047*
X331687Y620933*
X334187Y618774D02*
X331999Y619911D01*
Y618206*
X334187Y618774D02*
X330906D01*
X334187Y616047D02*
X331999Y617183D01*
Y615479*
X334187Y616047D02*
X330906D01*
X826901Y337933D02*
X826788Y338246D01*
X826560Y338558*
X826333Y338714*
X825879*
X825651Y338558*
X825424Y338246*
X825310Y337933*
X825197Y337464*
Y336683*
X825310Y336214*
X825424Y335902*
X825651Y335589*
X825879Y335433*
X826333*
X826560Y335589*
X826788Y335902*
X826901Y336214*
X828492Y338714D02*
X828151Y338558D01*
X828038Y338246*
Y337933*
X828151Y337621*
X828379Y337464*
X828833Y337308*
X829174Y337152*
X829401Y336839*
X829515Y336527*
Y336058*
X829401Y335746*
X829288Y335589*
X828947Y335433*
X828492*
X828151Y335589*
X828038Y335746*
X827924Y336058*
Y336527*
X828038Y336839*
X828265Y337152*
X828606Y337308*
X829060Y337464*
X829288Y337621*
X829401Y337933*
Y338246*
X829288Y338558*
X828947Y338714*
X828492*
X354075Y197114D02*
X354387Y197228D01*
X354700Y197455*
X354856Y197683*
Y198137*
X354700Y198364*
X354387Y198592*
X354075Y198705*
X353606Y198819*
X352825*
X352356Y198705*
X352044Y198592*
X351731Y198364*
X351575Y198137*
Y197683*
X351731Y197455*
X352044Y197228*
X352356Y197114*
X353762Y194614D02*
X353294Y194728D01*
X352981Y194955*
X352825Y195296*
Y195410*
X352981Y195751*
X353294Y195978*
X353762Y196092*
X353919*
X354387Y195978*
X354700Y195751*
X354856Y195410*
Y195296*
X354700Y194955*
X354387Y194728*
X353762Y194614*
X352981*
X352200Y194728*
X351731Y194955*
X351575Y195296*
Y195523*
X351731Y195864*
X352044Y195978*
X85756Y123622D02*
Y126903D01*
X86551Y123622D02*
X84960D01*
X83938Y124247D02*
X83710Y124090D01*
X83370Y123622*
Y126903*
X1046386Y123622D02*
Y126903D01*
X1047181Y123622D02*
X1045590D01*
X1044454Y124403D02*
Y124247D01*
X1044340Y123934*
X1044227Y123778*
X1043999Y123622*
X1043545*
X1043318Y123778*
X1043204Y123934*
X1043090Y124247*
Y124559*
X1043204Y124872*
X1043431Y125340*
X1044568Y126903*
X1042977*
X1046386Y651181D02*
Y654462D01*
X1047181Y651181D02*
X1045590D01*
X1044340D02*
X1043090D01*
X1043772Y652431*
X1043431*
X1043204Y652587*
X1043090Y652743*
X1042977Y653212*
Y653524*
X1043090Y653993*
X1043318Y654306*
X1043659Y654462*
X1043999*
X1044340Y654306*
X1044454Y654149*
X1044568Y653837*
X85756Y651181D02*
Y654462D01*
X86551Y651181D02*
X84960D01*
X82801D02*
X83938Y653368D01*
X82233*
X82801Y651181D02*
Y654462D01*
X420079Y440683D02*
Y438339D01*
X420192Y437870*
X420420Y437558*
X420761Y437402*
X420988*
X421329Y437558*
X421556Y437870*
X421670Y438339*
Y440683*
X422692Y440058D02*
X422920Y440214D01*
X423261Y440683*
Y437402*
X425647Y440214D02*
X425533Y440527D01*
X425192Y440683*
X424965*
X424624Y440527*
X424397Y440058*
X424283Y439277*
Y438495*
X424397Y437870*
X424624Y437558*
X424965Y437402*
X425079*
X425420Y437558*
X425647Y437870*
X425761Y438339*
Y438495*
X425647Y438964*
X425420Y439277*
X425079Y439433*
X424965*
X424624Y439277*
X424397Y438964*
X424283Y438495*
X542457Y183070D02*
Y185414D01*
X542343Y185883*
X542116Y186195*
X541775Y186352*
X541548*
X541207Y186195*
X540980Y185883*
X540866Y185414*
Y183070*
X539730Y183852D02*
Y183695D01*
X539616Y183383*
X539502Y183227*
X539275Y183070*
X538821*
X538593Y183227*
X538480Y183383*
X538366Y183695*
Y184008*
X538480Y184320*
X538707Y184789*
X539843Y186352*
X538252*
X535639Y183070D02*
X536775Y186352D01*
X537230Y183070D02*
X535639D01*
X818047D02*
Y185414D01*
X817934Y185883*
X817707Y186195*
X817366Y186352*
X817138*
X816797Y186195*
X816570Y185883*
X816457Y185414*
Y183070*
X815320Y183852D02*
Y183695D01*
X815207Y183383*
X815093Y183227*
X814866Y183070*
X814411*
X814184Y183227*
X814070Y183383*
X813957Y183695*
Y184008*
X814070Y184320*
X814297Y184789*
X815434Y186352*
X813843*
X811343Y184164D02*
X811457Y184633D01*
X811684Y184945*
X812025Y185102*
X812138*
X812479Y184945*
X812707Y184633*
X812820Y184164*
Y184008*
X812707Y183539*
X812479Y183227*
X812138Y183070*
X812025*
X811684Y183227*
X811457Y183539*
X811343Y184164*
Y184945*
X811457Y185727*
X811684Y186195*
X812025Y186352*
X812252*
X812593Y186195*
X812707Y185883*
X972246Y442257D02*
X974590D01*
X975059Y442371*
X975371Y442598*
X975528Y442939*
Y443166*
X975371Y443507*
X975059Y443734*
X975059D02*
X974590Y443848D01*
X972246*
Y445098D02*
Y446348D01*
X973496Y445666*
Y446007*
X973653Y446234*
X973653D02*
X973809Y446348D01*
X974278Y446462*
X974590*
X975059Y446348*
X975371Y446121*
X975528Y445780*
Y445439*
X975371Y445098*
X975215Y444984*
X975215D02*
X974903Y444871D01*
X972246Y448166D02*
X972403Y447825D01*
X972871Y447598*
X973653Y447484*
X973653D02*
X974121D01*
X974121D02*
X974903Y447598D01*
X975371Y447825*
X975528Y448166*
Y448394*
X975371Y448734*
X975371D02*
X974903Y448962D01*
X974121Y449075*
X973653*
X972871Y448962*
X972403Y448734*
X972403D02*
X972246Y448394D01*
Y448166*
X794699Y361339D02*
X792355D01*
X791886Y361225*
X791574Y360998*
X791417Y360657*
Y360429*
X791574Y360089*
X791886Y359861*
X792355Y359748*
X794699*
X794074Y358725D02*
X794230Y358498D01*
X794699Y358157*
X791417*
X794074Y357134D02*
X794230Y356907D01*
X794699Y356566*
X791417*
X780289Y368465D02*
X777945D01*
X777477Y368351*
X777164Y368124*
X777008Y367783*
Y367555*
X777164Y367215*
X777477Y366987*
X777945Y366874*
X780289*
X779664Y365851D02*
X779820Y365624D01*
X780289Y365283*
X777008*
X779508Y364146D02*
X779664D01*
X779977Y364033*
X780133Y363919*
X780289Y363692*
Y363237*
X780133Y363010*
X779977Y362896*
X779664Y362783*
X779352*
X779039Y362896*
X778570Y363124*
X777008Y364260*
Y362669*
X1025984Y197506D02*
Y199850D01*
X1025871Y200319*
X1025643Y200631*
X1025302Y200787*
X1025075*
X1024734Y200631*
X1024507Y200319*
X1024393Y199850*
Y197506*
X1023257Y198287D02*
Y198131D01*
X1023143Y197819*
X1023030Y197662*
X1022802Y197506*
X1022348*
X1022121Y197662*
X1022007Y197819*
X1021893Y198131*
Y198444*
X1022007Y198756*
X1022234Y199225*
X1023371Y200787*
X1021780*
X351811Y594423D02*
Y592079D01*
X351925Y591610*
X352152Y591298*
X352493Y591142*
X352720*
X353061Y591298*
X353288Y591610*
X353402Y592079*
Y594423*
X354538Y593642D02*
Y593798D01*
X354652Y594110*
X354766Y594267*
X354993Y594423*
X355447*
X355675Y594267*
X355788Y594110*
X355902Y593798*
Y593485*
X355788Y593173*
X355561Y592704*
X354425Y591142*
X356016*
X358402Y593954D02*
X358288Y594267D01*
X357947Y594423*
X357720*
X357379Y594267*
X357152Y593798*
X357038Y593017*
Y592235*
X357152Y591610*
X357379Y591298*
X357720Y591142*
X357834*
X358175Y591298*
X358402Y591610*
X358516Y592079*
Y592235*
X358402Y592704*
X358175Y593017*
X357834Y593173*
X357720*
X357379Y593017*
X357152Y592704*
X357038Y592235*
X508583Y419160D02*
Y421503D01*
X508469Y421972*
X508242Y422285*
X507901Y422441*
X507674*
X507333Y422285*
X507105Y421972*
X506992Y421503*
Y419160*
X505855Y419941D02*
Y419785D01*
X505742Y419472*
X505628Y419316*
X505401Y419160*
X504946*
X504719Y419316*
X504605Y419472*
X504492Y419785*
Y420097*
X504605Y420410*
X504833Y420878*
X505969Y422441*
X504378*
X502787Y419160D02*
X503128Y419316D01*
X503242Y419628*
Y419941*
X503128Y420253*
X502901Y420410*
X502446Y420566*
X502105Y420722*
X501878Y421035*
X501764Y421347*
Y421816*
X501878Y422128*
X501992Y422285*
X502333Y422441*
X502787*
X503128Y422285*
X503242Y422128*
X503355Y421816*
Y421347*
X503242Y421035*
X503014Y420722*
X502674Y420566*
X502219Y420410*
X501992Y420253*
X501878Y419941*
Y419628*
X501992Y419316*
X502333Y419160*
X502787*
X343820Y310951D02*
X342163Y312608D01*
X341751Y312859*
X341369Y312920*
X341018Y312789*
X340857Y312628*
X340727Y312277*
X340787Y311895*
X341038Y311483*
X342695Y309826*
X341530Y309545D02*
X341480Y309274D01*
X341570Y308701*
X339250Y311021*
X340044Y307174D02*
X339300Y309525D01*
X338095Y308319*
X340044Y307174D02*
X337723Y309495D01*
X195014Y443307D02*
X191732D01*
X195014D02*
Y442284D01*
X194857Y441943*
X194701Y441830*
X194389Y441716*
X194076*
X193764Y441830*
X193607Y441943*
X193451Y442284*
Y443307*
Y442512D02*
X191732Y441716D01*
X194389Y440693D02*
X194545Y440466D01*
X195014Y440125*
X191732*
X195014Y437512D02*
X191732Y438648D01*
X195014Y439103D02*
Y437512D01*
X191601Y504331D02*
X194882D01*
X191601D02*
Y505353D01*
X191757Y505694*
X191913Y505808*
X192226Y505922*
X192538*
X192851Y505808*
X193007Y505694*
X193163Y505353*
Y504331*
Y505126D02*
X194882Y505922D01*
X191601Y507172D02*
Y508422D01*
X192851Y507740*
Y508081*
X193007Y508308*
X193163Y508422*
X193632Y508535*
X193944*
X194413Y508422*
X194726Y508194*
X194882Y507853*
Y507513*
X194726Y507172*
X194569Y507058*
X194257Y506944*
X192382Y509672D02*
X192226D01*
X191913Y509785*
X191757Y509899*
X191601Y510126*
Y510581*
X191757Y510808*
X191913Y510922*
X192226Y511035*
X192538*
X192851Y510922*
X193319Y510694*
X194882Y509558*
Y511149*
X188321Y442913D02*
X185039D01*
X188321D02*
Y441891D01*
X188164Y441550*
X188008Y441436*
X187696Y441322*
X187383*
X187071Y441436*
X186914Y441550*
X186758Y441891*
Y442913*
Y442118D02*
X185039Y441322D01*
X188321Y440072D02*
Y438822D01*
X187071Y439504*
Y439163*
X186914Y438936*
X186758Y438822*
X186289Y438709*
X185977*
X185508Y438822*
X185196Y439050*
X185039Y439391*
Y439732*
X185196Y440072*
X185352Y440186*
X185664Y440300*
X188321Y437459D02*
Y436209D01*
X187071Y436891*
Y436550*
X186914Y436322*
X186758Y436209*
X186289Y436095*
X185977*
X185508Y436209*
X185196Y436436*
X185039Y436777*
Y437118*
X185196Y437459*
X185352Y437572*
X185664Y437686*
X184514Y503937D02*
X187795D01*
X184514D02*
Y504960D01*
X184670Y505301*
X184827Y505414*
X185139Y505528*
X185452*
X185764Y505414*
X185920Y505301*
X186077Y504960*
Y503937*
Y504732D02*
X187795Y505528D01*
X184514Y506778D02*
Y508028D01*
X185764Y507346*
Y507687*
X185920Y507914*
X186077Y508028*
X186545Y508142*
X186858*
X187327Y508028*
X187639Y507801*
X187795Y507460*
Y507119*
X187639Y506778*
X187483Y506664*
X187170Y506551*
X184514Y510301D02*
X186702Y509164D01*
Y510869*
X184514Y510301D02*
X187795D01*
X759427Y394268D02*
X757106Y396588D01*
X759427Y394268D02*
X758703Y393545D01*
X758352Y393414*
X758161Y393445*
X757860Y393585*
X757639Y393806*
X757498Y394107*
X757468Y394298*
X757599Y394650*
X758322Y395373*
X757759Y394811D02*
X755981Y395463D01*
X757137Y392862D02*
X757086Y392591D01*
X757177Y392018*
X754857Y394339*
X756293Y391134D02*
X755409Y390251D01*
X755007Y391617*
X754766Y391375*
X754495Y391325*
X754304Y391355*
X753892Y391607*
X753671Y391827*
X753420Y392239*
X753360Y392621*
X753491Y392973*
X753732Y393214*
X754083Y393344*
X754274Y393314*
X754575Y393173*
X747616Y382457D02*
X745295Y384777D01*
X747616Y382457D02*
X746892Y381734D01*
X746541Y381603*
X746350Y381634*
X746049Y381774*
X745828Y381995*
X745687Y382296*
X745657Y382487*
X745788Y382839*
X746511Y383562*
X745948Y383000D02*
X744170Y383652D01*
X745326Y381051D02*
X745275Y380780D01*
X745366Y380207*
X743045Y382527*
X743839Y378681D02*
X743096Y381031D01*
X741890Y379826*
X743839Y378681D02*
X741519Y381001D01*
X735805Y370646D02*
X733484Y372966D01*
X735805Y370646D02*
X735081Y369923D01*
X734730Y369792*
X734539Y369823*
X734238Y369963*
X734017Y370184*
X733876Y370485*
X733846Y370676*
X733977Y371028*
X734700Y371751*
X734137Y371189D02*
X732359Y371841D01*
X733514Y369240D02*
X733464Y368969D01*
X733555Y368396*
X731234Y370716*
X731787Y366628D02*
X732590Y367432D01*
X731676Y368507*
X731707Y368316*
X731576Y367964*
X731335Y367723*
X730983Y367593*
X730602Y367653*
X730190Y367904*
X730049Y368205*
X729798Y368617*
X729738Y368999*
X729868Y369350*
X730110Y369592*
X730461Y369722*
X730652Y369692*
X730953Y369551*
X723994Y358835D02*
X721673Y361155D01*
X723994Y358835D02*
X723270Y358112D01*
X722919Y357981*
X722728Y358012*
X722427Y358152*
X722206Y358373*
X722065Y358674*
X722035Y358865*
X722165Y359217*
X722889Y359940*
X722326Y359378D02*
X720548Y360030D01*
X721703Y357429D02*
X721653Y357158D01*
X721744Y356585*
X719423Y358905*
X719725Y355229D02*
X720026Y355089D01*
X720378Y355219*
X720538Y355380*
X720669Y355731*
X720498Y356224*
X720026Y356856*
X719474Y357409*
X718951Y357770*
X718570Y357831*
X718218Y357700*
X718138Y357620*
X718007Y357268*
X718067Y356887*
X718319Y356475*
X718429Y356364*
X718841Y356113*
X719223Y356053*
X719574Y356183*
X719654Y356264*
X719785Y356615*
X719725Y356997*
X719474Y357409*
X796535Y377349D02*
Y380630D01*
Y377349D02*
X795513D01*
X795172Y377505*
X795058Y377661*
X794945Y377974*
Y378286*
X795058Y378599*
X795172Y378755*
X795513Y378911*
X796535*
X795740D02*
X794945Y380630D01*
X793922Y377974D02*
X793695Y377817D01*
X793354Y377349*
Y380630*
X791763Y377349D02*
X792104Y377505D01*
X792217Y377817*
Y378130*
X792104Y378442*
X791876Y378599*
X791422Y378755*
X791081Y378911*
X790854Y379224*
X790740Y379536*
Y380005*
X790854Y380317*
X790967Y380474*
X791308Y380630*
X791763*
X792104Y380474*
X792217Y380317*
X792331Y380005*
Y379536*
X792217Y379224*
X791990Y378911*
X791649Y378755*
X791195Y378599*
X790967Y378442*
X790854Y378130*
Y377817*
X790967Y377505*
X791308Y377349*
X791763*
X834868Y351024D02*
X838150D01*
X834868D02*
Y352046D01*
X835025Y352387*
X835181Y352501*
X835493Y352615*
X835806*
X836118Y352501*
X836275Y352387*
X836431Y352046*
Y351024*
Y351819D02*
X838150Y352615D01*
X835493Y353637D02*
X835337Y353865D01*
X834868Y354205*
X838150*
X835962Y356705D02*
X836431Y356592D01*
X836743Y356365*
X836900Y356024*
Y355910*
X836743Y355569*
X836431Y355342*
X835962Y355228*
X835806*
X835337Y355342*
X835025Y355569*
X834868Y355910*
Y356024*
X835025Y356365*
X835337Y356592*
X835962Y356705*
X836743*
X837525Y356592*
X837993Y356365*
X838150Y356024*
Y355796*
X837993Y355455*
X837681Y355342*
X371195Y312900D02*
X373515Y315220D01*
X371195Y312900D02*
X370471Y313623D01*
X370341Y313974*
X370371Y314165*
X370512Y314467*
X370733Y314687*
X371034Y314828*
X371225Y314858*
X371576Y314728*
X372299Y314004*
X371737Y314567D02*
X372390Y316345D01*
X369818Y315381D02*
X369708Y315270D01*
X369407Y315129*
X369216Y315099*
X368945Y315150*
X368623Y315471*
X368573Y315742*
X368603Y315933*
X368744Y316234*
X368965Y316455*
X369266Y316596*
X369758Y316767*
X371667Y317068*
X370542Y318193*
X367016Y317078D02*
X367368Y316947D01*
X367860Y317118*
X368493Y317590*
X368824Y317922*
X369296Y318554*
X369467Y319047*
X369336Y319398*
X369176Y319559*
X368824Y319689*
X368332Y319519*
X367699Y319047*
X367368Y318715*
X366896Y318082*
X366725Y317590*
X366855Y317239*
X367016Y317078*
X357740Y325057D02*
X355419Y322736D01*
X357740Y325057D02*
X358463Y324333D01*
X358593Y323982*
X358563Y323791*
X358423Y323490*
X358202Y323269*
X357900Y323128*
X357710Y323098*
X357358Y323228*
X356635Y323952*
X357197Y323389D02*
X356544Y321611D01*
X359116Y322576D02*
X359226Y322686D01*
X359528Y322827*
X359718Y322857*
X359990Y322807*
X360311Y322485*
X360361Y322214*
X360331Y322023*
X360190Y321722*
X359969Y321501*
X359668Y321360*
X359176Y321190*
X357268Y320888*
X358393Y319763*
X360994Y320918D02*
X361265Y320868D01*
X361838Y320959*
X359517Y318638*
X339366Y287196D02*
X337046Y284875D01*
X339366Y287196D02*
X340089Y286473D01*
X340220Y286121*
X340190Y285930*
X340049Y285629*
X339828Y285408*
X339527Y285267*
X339336Y285237*
X338984Y285368*
X338261Y286091*
X338824Y285528D02*
X338171Y283751D01*
X340742Y284715D02*
X340853Y284825D01*
X341154Y284966*
X341345Y284996*
X341616Y284946*
X341937Y284624*
X341988Y284353*
X341957Y284162*
X341817Y283861*
X341596Y283640*
X341295Y283499*
X340802Y283329*
X338894Y283027*
X340019Y281902*
X342590Y282867D02*
X342701Y282977D01*
X343002Y283118*
X343193Y283148*
X343464Y283098*
X343785Y282776*
X343836Y282505*
X343806Y282314*
X343665Y282013*
X343444Y281792*
X343143Y281651*
X342650Y281481*
X340742Y281179*
X341867Y280054*
X332128Y281071D02*
X329808Y278751D01*
X332128Y281071D02*
X332851Y280348D01*
X332982Y279996*
X332952Y279806*
X332811Y279504*
X332590Y279283*
X332289Y279143*
X332098Y279113*
X331746Y279243*
X331023Y279966*
X331586Y279404D02*
X330933Y277626D01*
X333504Y278590D02*
X333614Y278701D01*
X333916Y278841*
X334107Y278871*
X334378Y278821*
X334699Y278500*
X334749Y278229*
X334719Y278038*
X334579Y277736*
X334358Y277516*
X334056Y277375*
X333564Y277204*
X331656Y276903*
X332781Y275778*
X335985Y277214D02*
X336869Y276330D01*
X335503Y275929*
X335744Y275687*
X335794Y275416*
X335764Y275225*
X335513Y274814*
X335292Y274593*
X334880Y274342*
X334498Y274281*
X334147Y274412*
X333906Y274653*
X333775Y275004*
X333805Y275195*
X333946Y275497*
X354069Y162598D02*
X350787D01*
X354069D02*
Y161576D01*
X353912Y161235*
X353756Y161121*
X353444Y161008*
X353131*
X352819Y161121*
X352662Y161235*
X352506Y161576*
Y162598*
Y161803D02*
X350787Y161008D01*
X353287Y159871D02*
X353444D01*
X353756Y159758*
X353912Y159644*
X354069Y159417*
Y158962*
X353912Y158735*
X353756Y158621*
X353444Y158508*
X353131*
X352819Y158621*
X352350Y158848*
X350787Y159985*
Y158394*
X354069Y156235D02*
X351881Y157371D01*
Y155667*
X354069Y156235D02*
X350787D01*
X353281Y179134D02*
X350000D01*
X353281D02*
Y178111D01*
X353125Y177770*
X352969Y177657*
X352656Y177543*
X352344*
X352031Y177657*
X351875Y177770*
X351719Y178111*
Y179134*
Y178338D02*
X350000Y177543D01*
X352500Y176407D02*
X352656D01*
X352969Y176293*
X353125Y176179*
X353281Y175952*
Y175497*
X353125Y175270*
X352969Y175157*
X352656Y175043*
X352344*
X352031Y175157*
X351562Y175384*
X351562D02*
X350000Y176520D01*
Y174929*
X353281Y172429D02*
Y173566D01*
X351875Y173679*
X352031Y173566*
X352187Y173225*
X352187D02*
Y172884D01*
X352187D02*
X352031Y172543D01*
X351719Y172316*
X351250Y172202*
X350937Y172316*
X350937D02*
X350469Y172429D01*
X350156Y172657*
X350000Y172997*
Y173338*
X350156Y173679*
X350312Y173793*
X350312D02*
X350625Y173907D01*
X357612Y164567D02*
X354331D01*
X357612D02*
Y163544D01*
X357456Y163203*
X357299Y163090*
X356987Y162976*
X356674*
X356362Y163090*
X356206Y163203*
X356049Y163544*
Y164567*
Y163771D02*
X354331Y162976D01*
X356831Y161840D02*
X356987D01*
X357299Y161726*
X357456Y161612*
X357612Y161385*
Y160931*
X357456Y160703*
X357299Y160590*
X356987Y160476*
X356674*
X356362Y160590*
X355893Y160817*
X354331Y161953*
Y160362*
X357143Y157976D02*
X357456Y158090D01*
X357612Y158431*
Y158658*
X357456Y158999*
X356987Y159226*
X356206Y159340*
X355424*
X354799Y159226*
X354487Y158999*
X354331Y158658*
Y158544*
X354487Y158203*
X354799Y157976*
X355268Y157862*
X355424*
X355893Y157976*
X356206Y158203*
X356362Y158544*
Y158658*
X356206Y158999*
X355893Y159226*
X355424Y159340*
X357612Y180315D02*
X354331D01*
X357612D02*
Y179292D01*
X357456Y178951*
X357299Y178838*
X356987Y178724*
X356674*
X356362Y178838*
X356206Y178951*
X356049Y179292*
Y180315*
Y179520D02*
X354331Y178724D01*
X356831Y177588D02*
X356987D01*
X357299Y177474*
X357456Y177360*
X357612Y177133*
Y176679*
X357456Y176451*
X357299Y176338*
X356987Y176224*
X356674*
X356362Y176338*
X355893Y176565*
X354331Y177701*
Y176110*
X357612Y173497D02*
X354331Y174633D01*
X357612Y175088D02*
Y173497D01*
X373360Y164567D02*
X370079D01*
X373360D02*
Y163544D01*
X373204Y163203*
X373047Y163090*
X372735Y162976*
X372422*
X372110Y163090*
X371954Y163203*
X371797Y163544*
Y164567*
Y163771D02*
X370079Y162976D01*
X372579Y161840D02*
X372735D01*
X373047Y161726*
X373204Y161612*
X373360Y161385*
Y160931*
X373204Y160703*
X373047Y160590*
X372735Y160476*
X372422*
X372110Y160590*
X371641Y160817*
X370079Y161953*
Y160362*
X373360Y158771D02*
X373204Y159112D01*
X372891Y159226*
X372579*
X372266Y159112*
X372110Y158885*
X371954Y158431*
X371797Y158090*
X371485Y157862*
X371172Y157749*
X370704*
X370391Y157862*
X370235Y157976*
X370079Y158317*
Y158771*
X370235Y159112*
X370391Y159226*
X370704Y159340*
X371172*
X371485Y159226*
X371797Y158999*
X371954Y158658*
X372110Y158203*
X372266Y157976*
X372579Y157862*
X372891*
X373204Y157976*
X373360Y158317*
Y158771*
Y180315D02*
X370079D01*
X373360D02*
Y179292D01*
X373204Y178951*
X373047Y178838*
X372735Y178724*
X372422*
X372110Y178838*
X371954Y178951*
X371797Y179292*
Y180315*
Y179520D02*
X370079Y178724D01*
X372579Y177588D02*
X372735D01*
X373047Y177474*
X373204Y177360*
X373360Y177133*
Y176679*
X373204Y176451*
X373047Y176338*
X372735Y176224*
X372422*
X372110Y176338*
X371641Y176565*
X370079Y177701*
Y176110*
X372266Y173610D02*
X371797Y173724D01*
X371485Y173951*
X371329Y174292*
Y174406*
X371485Y174747*
X371797Y174974*
X372266Y175088*
X372422*
X372891Y174974*
X373204Y174747*
X373360Y174406*
Y174292*
X373204Y173951*
X372891Y173724*
X372266Y173610*
X371485*
X370704Y173724*
X370235Y173951*
X370079Y174292*
Y174520*
X370235Y174860*
X370547Y174974*
X202165Y142585D02*
Y144929D01*
X202052Y145397*
X201824Y145710*
X201484Y145866*
X201256*
X200915Y145710*
X200688Y145397*
X200574Y144929*
Y142585*
X199552Y143210D02*
X199324Y143054D01*
X198984Y142585*
Y145866*
X196484Y143679D02*
X196597Y144147D01*
X196824Y144460*
X197165Y144616*
X197279*
X197620Y144460*
X197847Y144147*
X197961Y143679*
Y143522*
X197847Y143054*
X197620Y142741*
X197279Y142585*
X197165*
X196824Y142741*
X196597Y143054*
X196484Y143679*
Y144460*
X196597Y145241*
X196824Y145710*
X197165Y145866*
X197393*
X197734Y145710*
X197847Y145397*
X139173Y142585D02*
Y144929D01*
X139060Y145397*
X138832Y145710*
X138491Y145866*
X138264*
X137923Y145710*
X137696Y145397*
X137582Y144929*
Y142585*
X136446Y143366D02*
Y143210D01*
X136332Y142897*
X136219Y142741*
X135991Y142585*
X135537*
X135310Y142741*
X135196Y142897*
X135082Y143210*
Y143522*
X135196Y143835*
X135423Y144304*
X136560Y145866*
X134969*
X133264Y142585D02*
X133605Y142741D01*
X133832Y143210*
X133946Y143991*
Y144460*
X133832Y145241*
X133605Y145710*
X133264Y145866*
X133037*
X132696Y145710*
X132469Y145241*
X132355Y144460*
Y143991*
X132469Y143210*
X132696Y142741*
X133037Y142585*
X133264*
X265157D02*
Y144929D01*
X265044Y145397*
X264817Y145710*
X264476Y145866*
X264248*
X263907Y145710*
X263680Y145397*
X263567Y144929*
Y142585*
X262430Y143366D02*
Y143210D01*
X262317Y142897*
X262203Y142741*
X261976Y142585*
X261521*
X261294Y142741*
X261180Y142897*
X261067Y143210*
Y143522*
X261180Y143835*
X261407Y144304*
X262544Y145866*
X260953*
X259930Y143210D02*
X259703Y143054D01*
X259362Y142585*
Y145866*
X139173Y229199D02*
Y231543D01*
X139060Y232012*
X138832Y232324*
X138491Y232480*
X138264*
X137923Y232324*
X137696Y232012*
X137582Y231543*
Y229199*
X136446Y229980D02*
Y229824D01*
X136332Y229512*
X136219Y229355*
X135991Y229199*
X135537*
X135310Y229355*
X135196Y229512*
X135082Y229824*
Y230137*
X135196Y230449*
X135423Y230918*
X136560Y232480*
X134969*
X133832Y229980D02*
Y229824D01*
X133719Y229512*
X133605Y229355*
X133378Y229199*
X132923*
X132696Y229355*
X132582Y229512*
X132469Y229824*
Y230137*
X132582Y230449*
X132810Y230918*
X133946Y232480*
X132355*
X202165Y229199D02*
Y231543D01*
X202052Y232012*
X201824Y232324*
X201484Y232480*
X201256*
X200915Y232324*
X200688Y232012*
X200574Y231543*
Y229199*
X199438Y229980D02*
Y229824D01*
X199324Y229512*
X199211Y229355*
X198984Y229199*
X198529*
X198302Y229355*
X198188Y229512*
X198074Y229824*
Y230137*
X198188Y230449*
X198415Y230918*
X199552Y232480*
X197961*
X195802Y229199D02*
X196938Y231387D01*
X195234*
X195802Y229199D02*
Y232480D01*
X265157Y229199D02*
Y231543D01*
X265044Y232012*
X264817Y232324*
X264476Y232480*
X264248*
X263907Y232324*
X263680Y232012*
X263567Y231543*
Y229199*
X262430Y229980D02*
Y229824D01*
X262317Y229512*
X262203Y229355*
X261976Y229199*
X261521*
X261294Y229355*
X261180Y229512*
X261067Y229824*
Y230137*
X261180Y230449*
X261407Y230918*
X262544Y232480*
X260953*
X258453Y229199D02*
X259589D01*
X259703Y230605*
X259589Y230449*
X259248Y230293*
X258907*
X258567Y230449*
X258339Y230762*
X258226Y231230*
X258339Y231543*
X258453Y232012*
X258680Y232324*
X259021Y232480*
X259362*
X259703Y232324*
X259817Y232168*
X259930Y231855*
X317675Y375942D02*
X316017Y374285D01*
X315766Y373873*
X315706Y373491*
X315836Y373140*
X315997Y372979*
X316349Y372849*
X316730Y372909*
X317142Y373160*
X318799Y374817*
X319081Y373652D02*
X319352Y373602D01*
X319924Y373692*
X317604Y371372*
X107919Y123490D02*
Y125990D01*
X108032Y126459*
X108146Y126615*
X108373Y126772*
X108601*
X108828Y126615*
X108941Y126459*
X109055Y125990*
Y125678*
X106896Y124115D02*
X106669Y123959D01*
X106328Y123490*
Y126772*
X105305Y124115D02*
X105078Y123959D01*
X104737Y123490*
Y126772*
X170911Y123884D02*
Y126384D01*
X171025Y126853*
X171138Y127009*
X171365Y127165*
X171593*
X171820Y127009*
X171934Y126853*
X172047Y126384*
Y126072*
X169888Y124509D02*
X169661Y124353D01*
X169320Y123884*
Y127165*
X168184Y124665D02*
Y124509D01*
X168070Y124197*
X167956Y124040*
X167729Y123884*
X167275*
X167047Y124040*
X166934Y124197*
X166820Y124509*
Y124822*
X166934Y125134*
X167161Y125603*
X168297Y127165*
X166706*
X233903Y123884D02*
Y126384D01*
X234017Y126853*
X234130Y127009*
X234358Y127165*
X234585*
X234812Y127009*
X234926Y126853*
X235039Y126384*
Y126072*
X232880Y124509D02*
X232653Y124353D01*
X232312Y123884*
Y127165*
X231062Y123884D02*
X229812D01*
X230494Y125134*
X230153*
X229926Y125290*
X229812Y125447*
X229698Y125915*
Y126228*
X229812Y126697*
X230039Y127009*
X230380Y127165*
X230721*
X231062Y127009*
X231176Y126853*
X231289Y126540*
X107919Y210105D02*
Y212605D01*
X108032Y213073*
X108146Y213230*
X108373Y213386*
X108601*
X108828Y213230*
X108941Y213073*
X109055Y212605*
Y212292*
X106896Y210730D02*
X106669Y210573D01*
X106328Y210105*
Y213386*
X104169Y210105D02*
X105305Y212292D01*
X103601*
X104169Y210105D02*
Y213386D01*
X170517Y208923D02*
Y211423D01*
X170631Y211892*
X170744Y212048*
X170972Y212205*
X171199*
X171426Y212048*
X171540Y211892*
X171654Y211423*
Y211111*
X169381Y209705D02*
Y209548D01*
X169267Y209236*
X169154Y209080*
X168926Y208923*
X168472*
X168244Y209080*
X168131Y209236*
X168017Y209548*
Y209861*
X168131Y210173*
X168358Y210642*
X169494Y212205*
X167904*
X166199Y208923D02*
X166540Y209080D01*
X166767Y209548*
X166881Y210330*
Y210798*
X166767Y211580*
X166540Y212048*
X166199Y212205*
X165972*
X165631Y212048*
X165404Y211580*
X165290Y210798*
Y210330*
X165404Y209548*
X165631Y209080*
X165972Y208923*
X166199*
X234297Y209711D02*
Y212211D01*
X234410Y212680*
X234524Y212836*
X234751Y212992*
X234979*
X235206Y212836*
X235319Y212680*
X235433Y212211*
Y211898*
X233160Y210492D02*
Y210336D01*
X233047Y210023*
X232933Y209867*
X232706Y209711*
X232251*
X232024Y209867*
X231910Y210023*
X231797Y210336*
Y210648*
X231910Y210961*
X232138Y211430*
X233274Y212992*
X231683*
X230660Y210336D02*
X230433Y210180D01*
X230092Y209711*
Y212992*
X292564Y209317D02*
Y211817D01*
X292678Y212286*
X292792Y212442*
X293019Y212598*
X293246*
X293474Y212442*
X293587Y212286*
X293701Y211817*
Y211505*
X291428Y210098D02*
Y209942D01*
X291314Y209630*
X291201Y209473*
X290974Y209317*
X290519*
X290292Y209473*
X290178Y209630*
X290064Y209942*
Y210255*
X290178Y210567*
X290405Y211036*
X291542Y212598*
X289951*
X287792Y209317D02*
X288928Y211505D01*
X287224*
X287792Y209317D02*
Y212598D01*
X709887Y484514D02*
Y487014D01*
X710001Y487483*
X710115Y487639*
X710342Y487795*
X710569*
X710796Y487639*
X710910Y487483*
X711024Y487014*
Y486702*
X708865Y485139D02*
X708637Y484983D01*
X708296Y484514*
Y487795*
X705796Y484514D02*
X706933D01*
X707046Y485920*
X706933Y485764*
X706592Y485608*
X706251*
X705910Y485764*
X705683Y486077*
X705569Y486545*
X705683Y486858*
X705796Y487327*
X706024Y487639*
X706365Y487795*
X706705*
X707046Y487639*
X707160Y487483*
X707274Y487170*
X136220Y170604D02*
Y167323D01*
Y170604D02*
X137243D01*
X137584Y170448*
X137698Y170292*
X137811Y169979*
Y169667*
X137698Y169354*
X137584Y169198*
X137243Y169042*
X136220*
X137016D02*
X137811Y167323D01*
X139061Y170604D02*
X140311D01*
X139630Y169354*
X139970*
X140198Y169198*
X140311Y169042*
X140425Y168573*
Y168260*
X140311Y167792*
X140084Y167479*
X139743Y167323*
X139402*
X139061Y167479*
X138948Y167635*
X138834Y167948*
X142925Y169510D02*
X142811Y169042D01*
X142584Y168729*
X142243Y168573*
X142130*
X141789Y168729*
X141561Y169042*
X141448Y169510*
Y169667*
X141561Y170135*
X141789Y170448*
X142130Y170604*
X142243*
X142584Y170448*
X142811Y170135*
X142925Y169510*
Y168729*
X142811Y167948*
X142584Y167479*
X142243Y167323*
X142016*
X141675Y167479*
X141561Y167792*
X199213Y170604D02*
Y167323D01*
Y170604D02*
X200235D01*
X200576Y170448*
X200690Y170292*
X200804Y169979*
Y169667*
X200690Y169354*
X200576Y169198*
X200235Y169042*
X199213*
X200008D02*
X200804Y167323D01*
X202963Y170604D02*
X201826Y168417D01*
X203531*
X202963Y170604D02*
Y167323D01*
X205235Y170604D02*
X204894Y170448D01*
X204667Y169979*
X204554Y169198*
Y168729*
X204667Y167948*
X204894Y167479*
X205235Y167323*
X205463*
X205804Y167479*
X206031Y167948*
X206144Y168729*
Y169198*
X206031Y169979*
X205804Y170448*
X205463Y170604*
X205235*
X262205D02*
Y167323D01*
Y170604D02*
X263227D01*
X263568Y170448*
X263682Y170292*
X263796Y169979*
Y169667*
X263682Y169354*
X263568Y169198*
X263227Y169042*
X262205*
X263000D02*
X263796Y167323D01*
X265955Y170604D02*
X264818Y168417D01*
X266523*
X265955Y170604D02*
Y167323D01*
X267546Y169979D02*
X267773Y170135D01*
X268114Y170604*
Y167323*
X136220Y257218D02*
Y253937D01*
Y257218D02*
X137243D01*
X137584Y257062*
X137698Y256906*
X137811Y256593*
Y256281*
X137698Y255968*
X137584Y255812*
X137243Y255656*
X136220*
X137016D02*
X137811Y253937D01*
X139970Y257218D02*
X138834Y255031D01*
X140539*
X139970Y257218D02*
Y253937D01*
X141675Y256437D02*
Y256593D01*
X141789Y256906*
X141902Y257062*
X142130Y257218*
X142584*
X142811Y257062*
X142925Y256906*
X143039Y256593*
Y256281*
X142925Y255968*
X142698Y255500*
X141561Y253937*
X143152*
X262205Y257218D02*
Y253937D01*
Y257218D02*
X263227D01*
X263568Y257062*
X263682Y256906*
X263796Y256593*
Y256281*
X263682Y255968*
X263568Y255812*
X263227Y255656*
X262205*
X263000D02*
X263796Y253937D01*
X265955Y257218D02*
X264818Y255031D01*
X266523*
X265955Y257218D02*
Y253937D01*
X267773Y257218D02*
X269023D01*
X268341Y255968*
X268682*
X268909Y255812*
X269023Y255656*
X269137Y255187*
Y254875*
X269023Y254406*
X268796Y254093*
X268455Y253937*
X268114*
X267773Y254093*
X267659Y254250*
X267546Y254562*
X199213Y257218D02*
Y253937D01*
Y257218D02*
X200235D01*
X200576Y257062*
X200690Y256906*
X200804Y256593*
Y256281*
X200690Y255968*
X200576Y255812*
X200235Y255656*
X199213*
X200008D02*
X200804Y253937D01*
X202963Y257218D02*
X201826Y255031D01*
X203531*
X202963Y257218D02*
Y253937D01*
X205690Y257218D02*
X204554Y255031D01*
X206258*
X205690Y257218D02*
Y253937D01*
X775453Y348217D02*
X775765Y348330D01*
X776078Y348558*
X776234Y348785*
Y349239*
X776078Y349467*
X775765Y349694*
X775453Y349808*
X774984Y349921*
X774203*
X773734Y349808*
X773422Y349694*
X773109Y349467*
X772953Y349239*
Y348785*
X773109Y348558*
X773422Y348330*
X773734Y348217*
X776234Y345603D02*
X772953Y346739D01*
X776234Y347194D02*
Y345603D01*
X332683Y448372D02*
Y450872D01*
X332796Y451341*
X332910Y451497*
X333137Y451654*
X333364*
X333592Y451497*
X333705Y451341*
X333819Y450872*
Y450560*
X331546Y449154D02*
Y448997D01*
X331433Y448685*
X331319Y448529*
X331092Y448372*
X330637*
X330410Y448529*
X330296Y448685*
X330183Y448997*
Y449310*
X330296Y449622*
X330523Y450091*
X331660Y451654*
X330069*
X328933Y449154D02*
Y448997D01*
X328819Y448685*
X328705Y448529*
X328478Y448372*
X328023*
X327796Y448529*
X327683Y448685*
X327569Y448997*
Y449310*
X327683Y449622*
X327910Y450091*
X329046Y451654*
X327455*
X764502Y457677D02*
X762158D01*
X761689Y457564*
X761377Y457336*
X761220Y456995*
Y456768*
X761377Y456427*
X761689Y456200*
X762158Y456086*
X764502*
X763877Y455064D02*
X764033Y454836D01*
X764502Y454495*
X761220*
X764502Y452904D02*
X764345Y453245D01*
X764033Y453359*
X763720*
X763408Y453245*
X763252Y453018*
X763095Y452564*
X762939Y452223*
X762627Y451995*
X762314Y451882*
X761845*
X761533Y451995*
X761377Y452109*
X761220Y452450*
Y452904*
X761377Y453245*
X761533Y453359*
X761845Y453473*
X762314*
X762627Y453359*
X762939Y453132*
X763095Y452791*
X763252Y452336*
X763408Y452109*
X763720Y451995*
X764033*
X764345Y452109*
X764502Y452450*
Y452904*
X986158Y326771D02*
Y329115D01*
X986044Y329584*
X985817Y329896*
X985476Y330053*
X985249*
X984908Y329896*
X984680Y329584*
X984567Y329115*
Y326771*
X982180Y327240D02*
X982294Y326928D01*
X982635Y326771*
X982862*
X983203Y326928*
X983430Y327396*
X983544Y328178*
Y328959*
X983430Y329584*
X983203Y329896*
X982862Y330053*
X982749*
X982408Y329896*
X982180Y329584*
X982067Y329115*
Y328959*
X982180Y328490*
X982408Y328178*
X982749Y328021*
X982862*
X983203Y328178*
X983430Y328490*
X983544Y328959*
X261740Y307593D02*
X261599Y307291D01*
X261539Y306910*
X261589Y306639*
X261911Y306317*
X262182Y306267*
X262563Y306327*
X262865Y306468*
X263277Y306719*
X263829Y307271*
X264080Y307683*
X264221Y307984*
X264281Y308366*
X264231Y308637*
X263909Y308959*
X263638Y309009*
X263256Y308949*
X262955Y308808*
X259831Y309059D02*
X259691Y308758D01*
X259821Y308406*
X259982Y308246*
X260334Y308115*
X260826Y308286*
X261459Y308758*
X262011Y309310*
X262373Y309833*
X262433Y310214*
X262302Y310566*
X262222Y310646*
X261870Y310777*
X261489Y310716*
X261077Y310465*
X260966Y310355*
X260715Y309943*
X260655Y309561*
X260786Y309210*
X260866Y309129*
X261217Y308999*
X261599Y309059*
X262011Y309310*
X259138Y309973D02*
X258867Y310023D01*
X258295Y309933*
X260615Y312253*
X257345Y317687D02*
X256149Y314242D01*
X258470Y316562D02*
X255024Y315367D01*
X258751Y315397D02*
X259022Y315347D01*
X259595Y315438*
X257274Y313117*
X268236Y300643D02*
Y297362D01*
X267441Y300643D02*
X269032D01*
X271532D02*
X270395D01*
X270282Y299237*
X270395Y299393*
X270736Y299550*
X271077*
X271418Y299393*
X271645Y299081*
X271759Y298612*
X271645Y298300*
X271532Y297831*
X271305Y297518*
X270964Y297362*
X270623*
X270282Y297518*
X270168Y297675*
X270055Y297987*
X291777Y121522D02*
Y124022D01*
X291891Y124491*
X292004Y124647*
X292232Y124803*
X292459*
X292686Y124647*
X292800Y124491*
X292913Y124022*
Y123709*
X290641Y122303D02*
Y122147D01*
X290527Y121834*
X290413Y121678*
X290186Y121522*
X289732*
X289504Y121678*
X289391Y121834*
X289277Y122147*
Y122459*
X289391Y122772*
X289618Y123241*
X290754Y124803*
X289163*
X287913Y121522D02*
X286663D01*
X287345Y122772*
X287004*
X286777Y122928*
X286663Y123084*
X286550Y123553*
Y123866*
X286663Y124334*
X286891Y124647*
X287232Y124803*
X287572*
X287913Y124647*
X288027Y124491*
X288141Y124178*
X243343Y632520D02*
X243655Y632634D01*
X243655D02*
X243968Y632861D01*
X244124Y633088*
Y633543*
X243968Y633770*
X243655Y633997*
X243343Y634111*
X242874Y634224*
X242093*
X241624Y634111*
X241311Y633997*
X240999Y633770*
X240843Y633543*
Y633088*
X240999Y632861*
X241311Y632634*
X241311D02*
X241624Y632520D01*
X243655Y630134D02*
X243968Y630247D01*
X244124Y630588*
Y630815*
X243968Y631156*
X243499Y631384*
X243499D02*
X242718Y631497D01*
X241936*
X241311Y631384*
X241311D02*
X240999Y631156D01*
X240843Y630815*
Y630702*
X240999Y630361*
X241311Y630134*
X241311D02*
X241780Y630020D01*
X241936*
X242405Y630134*
X242405D02*
X242718Y630361D01*
X242874Y630702*
Y630815*
X242718Y631156*
X242405Y631384*
X242405D02*
X241936Y631497D01*
X243343Y628884D02*
X243499D01*
X243499D02*
X243811Y628770D01*
X243968Y628656*
X244124Y628429*
Y627974*
X243968Y627747*
X243811Y627634*
X243811D02*
X243499Y627520D01*
X243186*
X242874Y627634*
X242874D02*
X242405Y627861D01*
X240843Y628997*
Y627406*
G54D39*
X814352Y517815D02*
Y495669D01*
X806299Y506742D02*
X822405D01*
X395280Y289198D02*
X391523Y285441D01*
X391021Y284618*
X391122Y284075*
X391443Y283754*
X393251Y288133D02*
X394376Y287008D01*
X397530Y286948D02*
X392889Y282307D01*
X395099Y284517D02*
X396244Y284698D01*
X396787Y284597*
X397269Y284115*
X397369Y283573*
X396867Y282749*
X394657Y280540*
X399197Y282187D02*
X396104Y279093D01*
X397871Y280861D02*
X398695Y281363D01*
X399458Y281484*
X400001Y281383*
X400483Y280901*
X402733Y278651D02*
X402190Y278752D01*
X401427Y278631*
X400603Y278129*
X400161Y277687*
X399659Y276863*
X399539Y276100*
X399639Y275558*
X400121Y275076*
X400664Y274975*
X401427Y275096*
X402251Y275598*
X402693Y276040*
X403195Y276863*
X403315Y277627*
X403215Y278169*
X402733Y278651*
X407494Y276984D02*
X403737Y273227D01*
X403235Y272404*
X403335Y271861*
X403657Y271540*
X405465Y275919D02*
X406590Y274794D01*
X409744Y274734D02*
X405103Y270094D01*
X408317Y270415D02*
X410246Y268487D01*
X410688Y268929*
X410969Y269531*
X411029Y269913*
X410929Y270455*
X410447Y270937*
X409904Y271038*
X409141Y270917*
X408317Y270415*
X407875Y269973*
X407373Y269150*
X407253Y268386*
X407353Y267844*
X407835Y267362*
X408378Y267261*
X409141Y267382*
X384590Y275141D02*
X381496Y272047D01*
X383264Y273815D02*
X384087Y274317D01*
X384851Y274438*
X385393Y274337*
X385875Y273855*
X385996Y271083D02*
X387924Y269155D01*
X388366Y269596*
X388647Y270199*
X388708Y270581*
X388607Y271123*
X388125Y271605*
X387583Y271706*
X386819Y271585*
X385996Y271083*
X385554Y270641*
X385052Y269817*
X384931Y269054*
X385032Y268512*
X385514Y268030*
X386056Y267929*
X386819Y268050*
X392625Y267106D02*
X389089Y263570D01*
X388266Y263068*
X387884Y263008*
X387342Y263108*
X386860Y263590*
X386759Y264132*
X391962Y266443D02*
X392083Y267206D01*
X391982Y267748*
X391500Y268230*
X390958Y268331*
X390194Y268210*
X389371Y267708*
X388929Y267266*
X388427Y266443*
X388306Y265679*
X388406Y265137*
X388889Y264655*
X389431Y264554*
X390194Y264675*
X392745Y264333D02*
X394674Y262405D01*
X395116Y262847*
X395397Y263449*
X395457Y263831*
X395357Y264374*
X394875Y264856*
X394332Y264956*
X393569Y264836*
X392745Y264333*
X392304Y263891*
X391801Y263068*
X391681Y262304*
X391781Y261762*
X392263Y261280*
X392806Y261179*
X393569Y261300*
X397446Y262284D02*
X394353Y259191D01*
X396562Y261400D02*
X397707Y261581D01*
X398250Y261481*
X398732Y260999*
X398832Y260456*
X398330Y259633*
X396120Y257423*
X245012Y574409D02*
X249700D01*
X250637Y574637*
X251262Y575091*
X251575Y575773*
Y576228*
X251262Y576909*
X250637Y577364*
X249700Y577591*
X245012*
Y581455D02*
X251575Y579637D01*
X245012Y581455D02*
X251575Y583273D01*
X249387Y580319D02*
Y582591D01*
X245012Y585319D02*
X251575D01*
X245012D02*
Y587364D01*
X245325Y588046*
X245637Y588273*
X246262Y588500*
X246887*
X247512Y588273*
X247825Y588046*
X248137Y587364*
Y585319*
Y586909D02*
X251575Y588500D01*
X245012Y592137D02*
X251575D01*
X245012Y590546D02*
Y593728D01*
Y598728D02*
Y596455D01*
X247825Y596228*
X247512Y596455*
X247200Y597137*
Y597819*
X247512Y598500*
X248137Y598955*
X249075Y599182*
X249700Y598955*
X250637Y598728*
X251262Y598273*
X251575Y597591*
Y596909*
X251262Y596228*
X250950Y596000*
X250325Y595773*
X314697Y575197D02*
X319385D01*
X320322Y575424*
X320947Y575879*
X321260Y576560*
Y577015*
X320947Y577697*
X320322Y578151*
X319385Y578379*
X314697*
Y582242D02*
X321260Y580424D01*
X314697Y582242D02*
X321260Y584060D01*
X319072Y581106D02*
Y583379D01*
X314697Y586106D02*
X321260D01*
X314697D02*
Y588151D01*
X315010Y588833*
X315322Y589060*
X315947Y589288*
X316572*
X317197Y589060*
X317510Y588833*
X317822Y588151*
Y586106*
Y587697D02*
X321260Y589288D01*
X314697Y592924D02*
X321260D01*
X314697Y591333D02*
Y594515D01*
Y598833D02*
X319072Y596560D01*
Y599970*
X314697Y598833D02*
X321260D01*
X100000Y266405D02*
Y259843D01*
Y266405D02*
X102045D01*
X102727Y266093*
X102955Y265780*
X103182Y265155*
Y264218*
X102955Y263593*
X102727Y263280*
X102045Y262968*
X100000*
X105227Y266405D02*
Y259843D01*
Y266405D02*
X108182D01*
X105227Y263280D02*
X107045D01*
X105227Y259843D02*
X108182D01*
X110682Y266405D02*
X113182D01*
X111818Y263905*
X112500*
X112955Y263593*
X113182Y263280*
X113409Y262343*
Y261718*
X113182Y260780*
X112727Y260155*
X112045Y259843*
X111364*
X110682Y260155*
X110455Y260468*
X110227Y261093*
X162992Y266799D02*
Y260236D01*
Y266799D02*
X165038D01*
X165719Y266486*
X165947Y266174*
X166174Y265549*
Y264611*
X165947Y263986*
X165719Y263674*
X165038Y263361*
X162992*
X168219Y266799D02*
Y260236D01*
Y266799D02*
X171174D01*
X168219Y263674D02*
X170038D01*
X168219Y260236D02*
X171174D01*
X175492Y266799D02*
X173219Y262424D01*
X176628*
X175492Y266799D02*
Y260236D01*
X224409Y266799D02*
Y260236D01*
Y266799D02*
X226455D01*
X227137Y266486*
X227364Y266174*
X227591Y265549*
Y264611*
X227364Y263986*
X227137Y263674*
X226455Y263361*
X224409*
X229637Y266799D02*
Y260236D01*
Y266799D02*
X232591D01*
X229637Y263674D02*
X231455D01*
X229637Y260236D02*
X232591D01*
X237591Y266799D02*
X235319D01*
X235091Y263986*
X235319Y264299*
X236000Y264611*
X236682*
X237364Y264299*
X237819Y263674*
X238046Y262736*
X237819Y262111*
X237591Y261174*
X237137Y260549*
X236455Y260236*
X235773*
X235091Y260549*
X234864Y260861*
X234637Y261486*
X284646Y266011D02*
X286464Y259449D01*
X288282Y266011D02*
X286464Y259449D01*
X290327Y266011D02*
X290555Y265699D01*
X290782Y266011*
X290555Y266324*
X290327Y266011*
X290555Y263824D02*
Y259449D01*
X292827Y263824D02*
Y259449D01*
Y262574D02*
X293509Y263511D01*
X293964Y263824*
X294646*
X295100Y263511*
X295327Y262574*
Y259449*
X88386Y180381D02*
Y173819D01*
Y180381D02*
X90431D01*
X91113Y180069*
X91340Y179756*
X91568Y179131*
Y178194*
X91340Y177569*
X91113Y177256*
X90431Y176944*
X88386*
X93613Y180381D02*
Y173819D01*
Y180381D02*
X96568D01*
X93613Y177256D02*
X95431D01*
X93613Y173819D02*
X96568D01*
X99977Y180381D02*
X99295Y180069D01*
X98840Y179131*
X98613Y177569*
Y176631*
X98840Y175069*
X99295Y174131*
X99977Y173819*
X100431*
X101113Y174131*
X101568Y175069*
X101795Y176631*
Y177569*
X101568Y179131*
X101113Y180069*
X100431Y180381*
X99977*
X163386Y179791D02*
Y173228D01*
Y179791D02*
X165431D01*
X166113Y179478*
X166340Y179166*
X166568Y178541*
Y177603*
X166340Y176978*
X166113Y176666*
X165431Y176353*
X163386*
X168613Y179791D02*
Y173228D01*
Y179791D02*
X171568D01*
X168613Y176666D02*
X170431D01*
X168613Y173228D02*
X171568D01*
X173613Y178541D02*
X174068Y178853D01*
X174749Y179791*
Y173228*
X225591Y180972D02*
Y174409D01*
Y180972D02*
X227636D01*
X228318Y180659*
X228545Y180347*
X228772Y179722*
Y178784*
X228545Y178159*
X228318Y177847*
X227636Y177534*
X225591*
X230818Y180972D02*
Y174409D01*
Y180972D02*
X233772D01*
X230818Y177847D02*
X232636D01*
X230818Y174409D02*
X233772D01*
X236045Y179409D02*
Y179722D01*
X236272Y180347*
X236500Y180659*
X236954Y180972*
X237863*
X238318Y180659*
X238545Y180347*
X238772Y179722*
Y179097*
X238545Y178472*
X238091Y177534*
X235818Y174409*
X239000*
X285039Y179397D02*
X286858Y172835D01*
X288676Y179397D02*
X286858Y172835D01*
X290721Y179397D02*
X290948Y179085D01*
X291176Y179397*
X290948Y179710*
X290721Y179397*
X290948Y177210D02*
Y172835D01*
X293221Y177210D02*
Y172835D01*
Y175960D02*
X293903Y176897D01*
X294358Y177210*
X295039*
X295494Y176897*
X295721Y175960*
Y172835*
X650016Y512074D02*
Y505512D01*
X648425Y512074D02*
X651607D01*
X654789Y509887D02*
X654334Y509574D01*
X653880Y508949*
X653652Y508012*
Y507387*
X653880Y506449*
X654334Y505824*
X654789Y505512*
X655471*
X655925Y505824*
X656380Y506449*
X656607Y507387*
Y508012*
X656380Y508949*
X655925Y509574*
X655471Y509887*
X654789*
X663880Y512074D02*
Y505512D01*
Y512074D02*
X666834D01*
X663880Y508949D02*
X665698D01*
X663880Y505512D02*
X666834D01*
X668880Y512074D02*
X672062Y505512D01*
Y512074D02*
X668880Y505512D01*
X675698Y512074D02*
Y505512D01*
X674107Y512074D02*
X677289D01*
X687289D02*
Y505512D01*
Y508949D02*
X686834Y509574D01*
X686380Y509887*
X685698*
X685243Y509574*
X684789Y508949*
X684562Y508012*
Y507387*
X684789Y506449*
X685243Y505824*
X685698Y505512*
X686380*
X686834Y505824*
X687289Y506449*
X689334Y508012D02*
X692062D01*
Y508637*
X691834Y509262*
X691607Y509574*
X691152Y509887*
X690471*
X690016Y509574*
X689562Y508949*
X689334Y508012*
Y507387*
X689562Y506449*
X690016Y505824*
X690471Y505512*
X691152*
X691607Y505824*
X692062Y506449*
X694107Y509887D02*
X695471Y505512D01*
X696834Y509887D02*
X695471Y505512D01*
X698880Y512074D02*
X699107Y511762D01*
X699334Y512074*
X699107Y512387*
X698880Y512074*
X699107Y509887D02*
Y505512D01*
X704107Y508949D02*
X703652Y509574D01*
X703198Y509887*
X702516*
X702062Y509574*
X701607Y508949*
X701380Y508012*
Y507387*
X701607Y506449*
X702062Y505824*
X702516Y505512*
X703198*
X703652Y505824*
X704107Y506449*
X706152Y508012D02*
X708880D01*
Y508637*
X708652Y509262*
X708425Y509574*
X707971Y509887*
X707289*
X706834Y509574*
X706380Y508949*
X706152Y508012*
Y507387*
X706380Y506449*
X706834Y505824*
X707289Y505512*
X707971*
X708425Y505824*
X708880Y506449*
X904331Y495539D02*
Y488976D01*
Y495539D02*
X906376D01*
X907058Y495226*
X907285Y494914*
X907513Y494289*
Y493351*
X907285Y492726*
X907058Y492414*
X906376Y492101*
X904331*
X909558Y495539D02*
Y488976D01*
Y495539D02*
X912513D01*
X909558Y492414D02*
X911376D01*
X909558Y488976D02*
X912513D01*
X914558Y494289D02*
X915013Y494601D01*
X915694Y495539*
Y488976*
X920694Y495539D02*
X918422D01*
X918194Y492726*
X918422Y493039*
X919103Y493351*
X919785*
X920467Y493039*
X920922Y492414*
X921149Y491476*
X920922Y490851*
X920694Y489914*
X920240Y489289*
X919558Y488976*
X918876*
X918194Y489289*
X917967Y489601*
X917740Y490226*
X866929Y125854D02*
Y119291D01*
Y125854D02*
X868975D01*
X869656Y125541*
X869884Y125229*
X870111Y124604*
Y123666*
X869884Y123041*
X869656Y122729*
X868975Y122416*
X866929*
X872156Y125854D02*
Y119291D01*
Y125854D02*
X875111D01*
X872156Y122729D02*
X873975D01*
X872156Y119291D02*
X875111D01*
X877156Y124604D02*
X877611Y124916D01*
X878293Y125854*
Y119291*
X882611Y125854D02*
X880338Y121479D01*
X883747*
X882611Y125854D02*
Y119291D01*
X903576Y510743D02*
X903121Y511368D01*
X902439Y511681*
X901530*
X900848Y511368*
X900394Y510743*
Y510118*
X900621Y509493*
X900848Y509181*
X901303Y508868*
X902666Y508243*
X903121Y507931*
X903348Y507618*
X903576Y506993*
Y506056*
X903121Y505431*
X902439Y505118*
X901530*
X900848Y505431*
X900394Y506056*
X905621Y511681D02*
Y505118D01*
Y511681D02*
X907666D01*
X908348Y511368*
X908576Y511056*
X908803Y510431*
Y509493*
X908576Y508868*
X908348Y508556*
X907666Y508243*
X905621*
X910848Y511681D02*
Y505118D01*
X912894Y503868D02*
X917666D01*
X921303Y511681D02*
X919030Y507306D01*
X922439*
X921303Y511681D02*
Y505118D01*
X868536Y139483D02*
X868082Y140108D01*
X867400Y140421*
X866491*
X865809Y140108*
X865354Y139483*
Y138858*
X865582Y138233*
X865809Y137921*
X866263Y137608*
X867627Y136983*
X868082Y136671*
X868309Y136358*
X868536Y135733*
Y134796*
X868082Y134171*
X867400Y133858*
X866491*
X865809Y134171*
X865354Y134796*
X870582Y140421D02*
Y133858D01*
Y140421D02*
X872627D01*
X873309Y140108*
X873536Y139796*
X873763Y139171*
Y138233*
X873536Y137608*
X873309Y137296*
X872627Y136983*
X870582*
X875809Y140421D02*
Y133858D01*
X877854Y132608D02*
X882627D01*
X886263Y140421D02*
X883991Y136046D01*
X887400*
X886263Y140421D02*
Y133858D01*
X470505Y139483D02*
X470050Y140108D01*
X469368Y140421*
X468459*
X467777Y140108*
X467323Y139483*
Y138858*
X467550Y138233*
X467777Y137921*
X468232Y137608*
X469596Y136983*
X470050Y136671*
X470277Y136358*
X470505Y135733*
Y134796*
X470050Y134171*
X469368Y133858*
X468459*
X467777Y134171*
X467323Y134796*
X472550Y140421D02*
Y133858D01*
Y140421D02*
X474596D01*
X475277Y140108*
X475505Y139796*
X475732Y139171*
Y138233*
X475505Y137608*
X475277Y137296*
X474596Y136983*
X472550*
X477777Y140421D02*
Y133858D01*
X479823Y132608D02*
X484596D01*
X488232Y140421D02*
X485959Y136046D01*
X489368*
X488232Y140421D02*
Y133858D01*
X470472Y126248D02*
Y119685D01*
Y126248D02*
X472518D01*
X473200Y125935*
X473427Y125623*
X473654Y124998*
Y124060*
X473427Y123435*
X473200Y123123*
X472518Y122810*
X470472*
X475700Y126248D02*
Y119685D01*
Y126248D02*
X478654D01*
X475700Y123123D02*
X477518D01*
X475700Y119685D02*
X478654D01*
X480700Y124998D02*
X481154Y125310D01*
X481836Y126248*
Y119685*
X483882Y124998D02*
X484336Y125310D01*
X485018Y126248*
Y119685*
X385957Y491339D02*
X390645D01*
X391582Y491566*
X392207Y492020*
X392520Y492702*
Y493157*
X392207Y493839*
X391582Y494293*
X390645Y494520*
X385957*
X386895Y499748D02*
X386270Y499293D01*
X385957Y498611*
Y497702*
X386270Y497020*
X386895Y496566*
X387520*
X388145Y496793*
X388457Y497020*
X388770Y497475*
X389395Y498839*
X389707Y499293*
X390020Y499520*
X390645Y499748*
X391582*
X392207Y499293*
X392520Y498611*
Y497702*
X392207Y497020*
X391582Y496566*
X385957Y503611D02*
X392520Y501793D01*
X385957Y503611D02*
X392520Y505429D01*
X390332Y502475D02*
Y504748D01*
X385957Y507475D02*
X392520D01*
X385957D02*
Y509520D01*
X386270Y510202*
X386582Y510429*
X387207Y510657*
X387832*
X388457Y510429*
X388770Y510202*
X389082Y509520*
Y507475*
Y509066D02*
X392520Y510657D01*
X385957Y514293D02*
X392520D01*
X385957Y512702D02*
Y515884D01*
X386895Y520657D02*
X386270Y520429D01*
X385957Y519748*
Y519293*
X386270Y518611*
X387207Y518157*
X388770Y517929*
X390332*
X391582Y518157*
X392207Y518611*
X392520Y519293*
Y519520*
X392207Y520202*
X391582Y520657*
X390645Y520884*
X390332*
X389395Y520657*
X388770Y520202*
X388457Y519520*
Y519293*
X388770Y518611*
X389395Y518157*
X390332Y517929*
X101181Y499082D02*
Y492520D01*
Y499082D02*
X103227D01*
X103908Y498770*
X104136Y498457*
X104363Y497832*
Y496895*
X104136Y496270*
X103908Y495957*
X103227Y495645*
X101181*
X109817Y497520D02*
X109590Y498145D01*
X109136Y498770*
X108681Y499082*
X107772*
X107317Y498770*
X106863Y498145*
X106636Y497520*
X106408Y496582*
Y495020*
X106636Y494082*
X106863Y493457*
X107317Y492832*
X107772Y492520*
X108681*
X109136Y492832*
X109590Y493457*
X109817Y494082*
Y495020*
X108681D02*
X109817D01*
X111863Y497832D02*
X112317Y498145D01*
X112999Y499082*
Y492520*
X117999Y499082D02*
X115727D01*
X115499Y496270*
X115727Y496582*
X116408Y496895*
X117090*
X117772Y496582*
X118227Y495957*
X118454Y495020*
X118227Y494395*
X117999Y493457*
X117545Y492832*
X116863Y492520*
X116181*
X115499Y492832*
X115272Y493145*
X115045Y493770*
X92913Y459318D02*
Y452756D01*
Y459318D02*
X94959D01*
X95641Y459006*
X95868Y458693*
X96095Y458068*
Y457131*
X95868Y456506*
X95641Y456193*
X94959Y455881*
X92913*
X101550Y457756D02*
X101322Y458381D01*
X100868Y459006*
X100413Y459318*
X99504*
X99050Y459006*
X98595Y458381*
X98368Y457756*
X98141Y456818*
Y455256*
X98368Y454318*
X98595Y453693*
X99050Y453068*
X99504Y452756*
X100413*
X100868Y453068*
X101322Y453693*
X101550Y454318*
Y455256*
X100413D02*
X101550D01*
X103595Y458068D02*
X104050Y458381D01*
X104732Y459318*
Y452756*
X109050Y459318D02*
X106777Y454943D01*
X110186*
X109050Y459318D02*
Y452756D01*
X254921Y514043D02*
Y507480D01*
Y514043D02*
X256967D01*
X257649Y513730*
X257876Y513418*
X258103Y512793*
Y511855*
X257876Y511230*
X257649Y510918*
X256967Y510605*
X254921*
X263558Y512480D02*
X263330Y513105D01*
X262876Y513730*
X262421Y514043*
X261512*
X261058Y513730*
X260603Y513105*
X260376Y512480*
X260149Y511543*
Y509980*
X260376Y509043*
X260603Y508418*
X261058Y507793*
X261512Y507480*
X262421*
X262876Y507793*
X263330Y508418*
X263558Y509043*
Y509980*
X262421D02*
X263558D01*
X265603Y512793D02*
X266058Y513105D01*
X266739Y514043*
Y507480*
X270149Y514043D02*
X269467Y513730D01*
X269012Y512793*
X268785Y511230*
Y510293*
X269012Y508730*
X269467Y507793*
X270149Y507480*
X270603*
X271285Y507793*
X271739Y508730*
X271967Y510293*
Y511230*
X271739Y512793*
X271285Y513730*
X270603Y514043*
X270149*
X243307Y467192D02*
Y460630D01*
Y467192D02*
X245353D01*
X246034Y466880*
X246262Y466567*
X246489Y465942*
Y465005*
X246262Y464380*
X246034Y464067*
X245353Y463755*
X243307*
X251943Y465630D02*
X251716Y466255D01*
X251262Y466880*
X250807Y467192*
X249898*
X249443Y466880*
X248989Y466255*
X248762Y465630*
X248534Y464692*
Y463130*
X248762Y462192*
X248989Y461567*
X249443Y460942*
X249898Y460630*
X250807*
X251262Y460942*
X251716Y461567*
X251943Y462192*
Y463130*
X250807D02*
X251943D01*
X253989Y465942D02*
X254443Y466255D01*
X255125Y467192*
Y460630*
X257171Y465942D02*
X257625Y466255D01*
X258307Y467192*
Y460630*
X347276Y119011D02*
X346822Y119636D01*
X346140Y119948*
X345231*
X344549Y119636*
X344094Y119011*
Y118386*
X344322Y117761*
X344549Y117448*
X345004Y117136*
X346367Y116511*
X346822Y116198*
X347049Y115886*
X347276Y115261*
Y114323*
X346822Y113698*
X346140Y113386*
X345231*
X344549Y113698*
X344094Y114323*
X349322Y117761D02*
Y111198D01*
Y116823D02*
X349776Y117448D01*
X350231Y117761*
X350913*
X351367Y117448*
X351822Y116823*
X352049Y115886*
Y115261*
X351822Y114323*
X351367Y113698*
X350913Y113386*
X350231*
X349776Y113698*
X349322Y114323*
X354094Y115886D02*
X356822D01*
Y116511*
X356594Y117136*
X356367Y117448*
X355913Y117761*
X355231*
X354776Y117448*
X354322Y116823*
X354094Y115886*
Y115261*
X354322Y114323*
X354776Y113698*
X355231Y113386*
X355913*
X356367Y113698*
X356822Y114323*
X358867Y115886D02*
X361594D01*
Y116511*
X361367Y117136*
X361140Y117448*
X360685Y117761*
X360004*
X359549Y117448*
X359094Y116823*
X358867Y115886*
Y115261*
X359094Y114323*
X359549Y113698*
X360004Y113386*
X360685*
X361140Y113698*
X361594Y114323*
X366367Y119948D02*
Y113386D01*
Y116823D02*
X365913Y117448D01*
X365458Y117761*
X364776*
X364322Y117448*
X363867Y116823*
X363640Y115886*
Y115261*
X363867Y114323*
X364322Y113698*
X364776Y113386*
X365458*
X365913Y113698*
X366367Y114323*
X368413Y112136D02*
X373185D01*
X377731Y119011D02*
X377276Y119636D01*
X376594Y119948*
X375685*
X375004Y119636*
X374549Y119011*
Y118386*
X374776Y117761*
X375004Y117448*
X375458Y117136*
X376822Y116511*
X377276Y116198*
X377504Y115886*
X377731Y115261*
Y114323*
X377276Y113698*
X376594Y113386*
X375685*
X375004Y113698*
X374549Y114323*
X379776Y115886D02*
X382504D01*
Y116511*
X382276Y117136*
X382049Y117448*
X381594Y117761*
X380913*
X380458Y117448*
X380004Y116823*
X379776Y115886*
Y115261*
X380004Y114323*
X380458Y113698*
X380913Y113386*
X381594*
X382049Y113698*
X382504Y114323*
X384549Y117761D02*
Y113386D01*
Y116511D02*
X385231Y117448D01*
X385685Y117761*
X386367*
X386822Y117448*
X387049Y116511*
Y113386*
X391594Y116823D02*
X391367Y117448D01*
X390685Y117761*
X390004*
X389322Y117448*
X389094Y116823*
X389322Y116198*
X389776Y115886*
X390913Y115573*
X391367Y115261*
X391594Y114636*
Y114323*
X391367Y113698*
X390685Y113386*
X390004*
X389322Y113698*
X389094Y114323*
X394776Y117761D02*
X394322Y117448D01*
X393867Y116823*
X393640Y115886*
Y115261*
X393867Y114323*
X394322Y113698*
X394776Y113386*
X395458*
X395913Y113698*
X396367Y114323*
X396594Y115261*
Y115886*
X396367Y116823*
X395913Y117448*
X395458Y117761*
X394776*
X398640D02*
Y113386D01*
Y115886D02*
X398867Y116823D01*
X399322Y117448*
X399776Y117761*
X400458*
X70016Y107612D02*
X1054268D01*
Y658793*
X70016*
Y107612*
X0Y0D02*
M02*
