%
T1C.01181F095S3
X033819Y034882
X033839Y039134
X033976Y040866
X032795Y041083
X03372Y04311
X045079Y045
X043799Y04372
X038091Y03437
X041063Y03315
T2C.01575F095S3
X033661Y03372
X034843Y034902
X032756Y036909
X032756Y037303
X032756Y037697
X032756Y038091
X039331Y044291
X041496Y044291
X035866Y042815
X042106Y033976
X045177Y033602
X044291Y034488
X044764Y035925
X045591Y036969
X045807Y0375
X044764Y038484
X045807Y038583
X044764Y040453
X045571Y041496
X045787Y042283
X045827Y042992
X044921Y043012
T3C.02362F197S55
X032677Y044685
X036772Y045098
T4C.03543F197S55
X031496Y03187
X031496Y03287
X031496Y03387
X031496Y03487
X031496Y03587
X031496Y03687
X031496Y03787
X031496Y03887
X031496Y03987
X031496Y04087
X031496Y04187
X031496Y04287
X031496Y04387
X031496Y04487
X031496Y04587
X031496Y04687
X047244Y04687
X047244Y04587
X047244Y04487
X047244Y04387
X047244Y04287
X047244Y04187
X047244Y04087
X047244Y03987
X047244Y03887
X047244Y03787
X047244Y03687
X047244Y03587
X047244Y03487
X047244Y03387
X047244Y03287
X047244Y03187
T5C.11811F069S658
X030315Y030709
X030315Y048031
X048425Y048031
X048425Y030709
M30
